<?xml version="1.0" standalone="no"?>
<!DOCTYPE svg PUBLIC "-//W3C//DTD SVG 20010904//EN"
 "http://www.w3.org/TR/2001/REC-SVG-20010904/DTD/svg10.dtd">
<svg version="1.0" xmlns="http://www.w3.org/2000/svg"
 width="2309.000000pt" height="2617.000000pt" viewBox="0 0 2309.000000 2617.000000"
 preserveAspectRatio="xMidYMid meet">

<g transform="translate(0.000000,2617.000000) scale(0.100000,-0.100000)"
fill="#000000" stroke="none">
<path d="M13011 26150 c-4 -3 -13 -20 -20 -37 -8 -18 -16 -33 -20 -33 -4 0
-13 -16 -20 -35 -7 -19 -16 -35 -20 -35 -4 0 -13 -15 -19 -34 -7 -19 -19 -37
-27 -40 -8 -3 -12 -11 -9 -19 2 -7 -6 -25 -20 -40 -13 -14 -21 -28 -19 -31 3
-3 -6 -21 -21 -41 -15 -19 -24 -35 -21 -35 4 0 -4 -14 -17 -32 -12 -18 -23
-39 -25 -46 -1 -8 -12 -25 -24 -38 -12 -13 -19 -24 -15 -24 4 0 -1 -13 -11
-30 -9 -16 -21 -30 -25 -30 -4 0 -8 -9 -8 -20 0 -11 -9 -29 -20 -40 -11 -11
-20 -27 -20 -35 0 -8 -9 -24 -20 -35 -11 -11 -20 -27 -20 -35 0 -8 -9 -24 -20
-35 -11 -11 -20 -26 -20 -34 0 -7 -8 -24 -18 -37 -10 -13 -24 -39 -31 -56 -8
-18 -17 -33 -21 -33 -4 0 -11 -11 -14 -24 -3 -14 -14 -32 -24 -42 -9 -10 -18
-21 -18 -26 -1 -4 -2 -12 -3 -18 0 -5 -11 -18 -23 -30 -12 -11 -19 -20 -15
-20 4 0 1 -13 -8 -30 -9 -16 -21 -30 -27 -30 -6 0 -9 -3 -5 -6 8 -9 -21 -64
-33 -64 -6 0 -10 -9 -10 -20 0 -11 -8 -28 -19 -39 -10 -10 -21 -30 -25 -44 -3
-14 -12 -32 -19 -39 -7 -7 -19 -28 -26 -45 -7 -18 -17 -33 -22 -33 -5 0 -9 -8
-9 -18 0 -10 -9 -28 -20 -40 -11 -12 -20 -27 -20 -35 0 -7 -9 -23 -20 -35 -11
-12 -20 -27 -20 -35 0 -7 -9 -23 -20 -35 -11 -12 -20 -27 -20 -35 0 -8 -9 -26
-20 -40 -11 -14 -20 -29 -20 -35 0 -5 -10 -22 -22 -38 -12 -15 -23 -34 -24
-42 -2 -8 -13 -25 -25 -38 -12 -13 -19 -24 -15 -24 3 0 0 -13 -9 -30 -9 -16
-21 -30 -27 -30 -6 0 -9 -3 -5 -6 8 -9 -21 -64 -33 -64 -6 0 -10 -9 -10 -20 0
-11 -9 -29 -20 -40 -11 -11 -20 -27 -20 -35 0 -8 -8 -23 -17 -33 -10 -9 -23
-31 -28 -47 -6 -17 -15 -29 -20 -28 -6 1 -14 -2 -20 -7 -10 -7 -90 -9 -552
-13 -112 -1 -203 -5 -203 -8 0 -4 -67 -7 -150 -7 -82 1 -150 4 -150 9 0 4 -11
19 -25 33 -14 14 -25 32 -25 41 0 8 -6 15 -14 15 -7 0 -21 16 -30 35 -9 19
-21 35 -27 35 -5 0 -15 12 -22 28 -6 15 -22 35 -34 45 -13 10 -23 23 -23 28 0
6 -14 24 -30 41 -17 17 -29 32 -27 35 3 2 -7 16 -22 32 -36 37 -76 90 -76 99
0 4 -11 19 -25 33 -29 30 -73 87 -79 101 -1 5 -14 20 -27 33 -13 13 -24 32
-24 41 0 10 -3 14 -6 11 -7 -7 -44 36 -44 51 0 5 -7 12 -15 16 -8 3 -21 18
-28 33 -6 15 -22 36 -34 46 -13 10 -23 24 -23 32 0 7 -7 15 -15 19 -8 3 -21
18 -28 33 -6 15 -22 36 -34 46 -13 10 -23 22 -23 27 0 5 -11 21 -25 36 -14 15
-25 31 -25 37 0 5 -11 18 -25 29 -14 11 -25 24 -25 30 0 5 -12 23 -27 39 -16
16 -26 31 -23 33 3 2 -7 14 -22 26 -16 12 -28 26 -28 32 0 5 -12 23 -27 39
-16 16 -28 32 -28 37 0 4 -13 19 -28 35 -16 15 -25 32 -22 37 3 6 1 10 -5 10
-12 0 -49 39 -50 52 0 4 -11 19 -25 34 -14 15 -25 31 -25 37 0 5 -11 18 -25
29 -14 11 -25 23 -25 28 0 5 -11 21 -25 36 -14 15 -25 31 -25 37 0 5 -11 18
-25 29 -14 11 -25 23 -25 28 0 5 -11 21 -25 36 -14 15 -25 31 -25 35 0 4 -11
19 -25 33 -14 14 -25 32 -25 41 0 8 -6 15 -13 15 -8 0 -20 12 -28 27 -8 15
-24 37 -36 49 -13 13 -23 30 -23 39 0 8 -6 15 -14 15 -8 0 -20 14 -28 30 -12
29 -28 40 -28 21 0 -5 -15 -12 -32 -16 -18 -4 -47 -13 -65 -21 -17 -8 -38 -11
-47 -8 -9 3 -16 2 -16 -4 0 -6 -15 -13 -32 -17 -18 -4 -48 -13 -66 -21 -18 -8
-37 -12 -42 -9 -6 4 -17 -1 -26 -9 -8 -9 -28 -16 -43 -16 -15 0 -32 -5 -38
-11 -5 -5 -21 -11 -34 -13 -13 -1 -34 -8 -47 -15 -13 -7 -33 -13 -45 -15 -12
-1 -35 -8 -50 -14 -15 -7 -31 -11 -35 -10 -4 0 -23 -6 -42 -15 -19 -8 -39 -13
-44 -10 -4 3 -12 0 -16 -7 -4 -7 -20 -13 -36 -15 -16 -1 -45 -10 -64 -18 -19
-8 -39 -13 -44 -10 -4 3 -12 0 -16 -7 -4 -7 -21 -13 -38 -15 -17 -1 -38 -7
-46 -14 -8 -7 -28 -13 -45 -13 -17 -1 -31 -5 -31 -9 0 -4 -17 -11 -37 -15 -21
-4 -43 -11 -50 -16 -6 -5 -22 -11 -35 -12 -13 -2 -30 -6 -38 -9 -34 -14 -116
-40 -130 -41 -8 -1 -26 -7 -40 -13 -41 -18 -114 -38 -127 -35 -7 2 -13 -2 -13
-7 0 -6 -17 -13 -37 -17 -21 -4 -43 -11 -50 -16 -6 -5 -25 -10 -42 -10 -17 -1
-31 -5 -31 -9 0 -4 -15 -10 -32 -14 -18 -4 -47 -13 -65 -21 -17 -8 -38 -11
-47 -8 -9 3 -16 2 -16 -4 0 -6 -15 -13 -32 -17 -18 -4 -48 -13 -66 -21 -18 -8
-37 -12 -42 -9 -6 4 -17 -1 -26 -9 -8 -9 -28 -16 -43 -16 -15 0 -32 -5 -38
-11 -5 -5 -21 -11 -34 -13 -13 -1 -34 -8 -46 -14 -12 -7 -33 -12 -47 -12 -13
0 -26 -4 -28 -10 -1 -5 -16 -11 -33 -14 -16 -2 -46 -10 -65 -19 -35 -15 -35
-16 -32 -69 1 -29 4 -88 6 -130 2 -42 7 -81 10 -87 4 -5 6 -27 5 -48 -1 -21 2
-76 5 -123 9 -98 17 -223 21 -326 1 -40 5 -77 9 -82 4 -6 6 -28 5 -49 0 -21 2
-78 6 -128 4 -49 8 -122 10 -161 1 -40 5 -76 8 -81 3 -5 5 -41 5 -79 -1 -38 1
-75 5 -81 4 -7 7 -29 7 -50 -2 -64 7 -199 13 -209 3 -5 5 -41 4 -80 0 -39 3
-75 7 -82 3 -6 6 -28 5 -49 0 -21 2 -76 6 -123 4 -47 8 -119 9 -161 2 -41 5
-80 9 -85 3 -5 5 -41 4 -80 0 -39 2 -75 6 -80 3 -6 5 -34 5 -62 -1 -46 -4 -53
-25 -58 -13 -4 -23 -9 -23 -13 0 -4 -13 -15 -30 -24 -16 -10 -30 -16 -30 -13
0 3 -11 -6 -25 -19 -13 -14 -31 -25 -40 -25 -8 0 -15 -4 -15 -8 0 -4 -13 -16
-30 -25 -16 -10 -30 -16 -30 -13 0 3 -11 -6 -25 -19 -13 -14 -31 -25 -40 -25
-8 0 -15 -4 -15 -10 0 -5 -17 -19 -38 -30 -78 -44 -97 -55 -107 -67 -10 -11
-58 -42 -105 -65 -13 -7 -35 -23 -49 -35 -13 -13 -30 -23 -37 -23 -8 0 -14 -4
-14 -9 0 -5 -14 -14 -31 -22 -18 -7 -43 -23 -57 -36 -14 -13 -29 -23 -34 -23
-5 0 -18 -9 -30 -20 -12 -11 -27 -20 -34 -20 -7 0 -25 -11 -40 -25 -15 -14
-33 -25 -40 -25 -8 0 -14 -3 -14 -8 0 -4 -8 -12 -19 -19 -20 -13 -101 2 -101
18 0 5 -10 9 -23 9 -13 0 -32 7 -43 15 -10 8 -26 15 -34 15 -8 0 -28 7 -44 15
-15 8 -34 15 -40 15 -6 0 -22 8 -36 17 -13 9 -35 18 -48 19 -13 2 -32 10 -41
18 -10 9 -20 14 -23 11 -7 -8 -58 16 -58 27 0 5 -6 8 -12 7 -28 -3 -47 2 -63
17 -9 9 -19 14 -22 11 -3 -4 -20 1 -37 10 -33 18 -37 20 -60 22 -8 0 -21 8
-30 16 -8 9 -19 15 -23 14 -15 -4 -63 13 -63 22 0 5 -10 9 -23 9 -12 0 -31 6
-42 14 -11 7 -35 17 -53 21 -17 3 -32 11 -32 16 0 5 -10 9 -23 9 -13 0 -32 7
-43 15 -10 8 -25 15 -32 15 -8 0 -28 6 -45 14 -18 7 -47 19 -64 26 -18 7 -33
15 -33 19 0 3 -12 7 -26 7 -14 1 -33 9 -43 18 -10 9 -20 14 -23 11 -7 -8 -58
16 -58 27 0 5 -6 8 -12 7 -28 -3 -47 2 -62 17 -9 8 -20 13 -24 10 -5 -3 -23 4
-40 15 -18 10 -41 19 -52 19 -10 0 -25 6 -32 13 -7 8 -30 17 -51 21 -20 4 -37
11 -37 16 0 6 -10 10 -23 10 -12 0 -31 6 -42 14 -11 7 -35 17 -52 21 -18 3
-33 11 -33 16 0 5 -10 9 -23 9 -12 0 -33 8 -47 17 -13 9 -35 18 -48 19 -13 2
-32 10 -41 18 -10 9 -20 14 -23 11 -6 -7 -58 15 -58 24 0 3 -12 7 -26 7 -14 1
-33 9 -43 18 -10 9 -20 14 -23 11 -7 -8 -58 16 -58 27 0 5 -6 8 -12 7 -28 -3
-47 2 -62 17 -9 8 -20 13 -24 10 -5 -3 -23 4 -40 15 -18 10 -41 19 -52 19 -10
0 -25 6 -32 13 -24 24 -66 26 -85 5 -10 -11 -30 -32 -45 -48 -16 -15 -28 -32
-28 -37 0 -5 -12 -22 -27 -36 -16 -15 -39 -41 -53 -58 -14 -18 -37 -44 -52
-60 -16 -15 -28 -31 -28 -36 0 -5 -12 -22 -27 -36 -16 -15 -39 -41 -53 -58
-14 -18 -37 -44 -52 -60 -16 -15 -28 -31 -28 -36 0 -5 -12 -22 -27 -36 -16
-15 -39 -41 -53 -58 -14 -18 -37 -44 -52 -60 -16 -15 -28 -31 -28 -35 0 -8
-11 -20 -82 -94 -16 -15 -28 -33 -28 -38 0 -6 -11 -19 -25 -30 -14 -11 -25
-24 -25 -28 0 -8 -11 -20 -82 -94 -16 -15 -28 -33 -28 -38 0 -6 -11 -19 -25
-30 -14 -11 -25 -24 -25 -28 0 -8 -11 -20 -82 -94 -16 -15 -28 -33 -28 -38 0
-6 -11 -19 -25 -30 -14 -11 -25 -25 -25 -31 0 -6 -14 -20 -30 -33 -17 -12 -30
-27 -30 -34 0 -7 -11 -21 -25 -32 -14 -11 -25 -25 -25 -30 0 -6 -11 -19 -25
-30 -14 -11 -25 -25 -25 -31 0 -6 -14 -20 -30 -33 -17 -12 -30 -27 -30 -34 0
-7 -11 -21 -25 -32 -14 -11 -25 -25 -25 -30 0 -6 -11 -19 -25 -30 -14 -11 -25
-25 -25 -31 0 -6 -13 -20 -30 -33 -16 -12 -30 -27 -30 -34 0 -7 -11 -21 -25
-32 -14 -11 -25 -25 -25 -30 0 -6 -15 -22 -32 -36 -20 -15 -27 -26 -18 -26 13
0 43 -34 45 -50 0 -3 13 -18 28 -34 14 -16 25 -32 22 -36 -2 -4 9 -17 25 -29
17 -12 30 -26 30 -31 0 -5 11 -21 25 -36 14 -15 25 -31 25 -35 0 -4 10 -19 23
-32 44 -47 77 -92 77 -103 0 -7 7 -14 15 -18 8 -3 21 -18 28 -33 6 -15 22 -36
34 -46 13 -10 23 -24 23 -32 0 -7 7 -15 15 -19 8 -3 21 -18 28 -33 6 -15 22
-36 34 -46 13 -10 23 -22 23 -27 0 -5 11 -21 25 -36 14 -15 25 -31 25 -37 0
-5 11 -18 25 -29 14 -11 25 -28 25 -39 0 -10 6 -19 13 -19 8 0 20 -12 28 -27
8 -15 24 -37 36 -49 13 -13 23 -28 23 -35 0 -6 11 -20 25 -31 14 -11 25 -26
25 -33 0 -8 9 -19 19 -25 11 -5 23 -20 27 -32 4 -12 17 -31 30 -41 13 -10 24
-23 24 -28 0 -6 13 -24 30 -40 16 -17 29 -33 27 -37 -1 -4 10 -19 23 -33 30
-31 75 -90 75 -98 0 -3 13 -18 28 -34 16 -15 25 -32 22 -37 -3 -6 -1 -10 5
-10 12 0 49 -39 50 -52 0 -4 11 -19 25 -34 14 -15 25 -31 25 -37 0 -5 11 -18
25 -29 14 -11 25 -23 25 -28 0 -5 11 -21 25 -36 14 -15 25 -31 25 -35 0 -4 10
-19 23 -32 44 -47 77 -92 77 -103 0 -7 7 -14 15 -18 8 -3 21 -18 28 -33 6 -15
22 -36 34 -46 13 -10 23 -24 23 -32 0 -7 7 -15 15 -19 8 -3 21 -18 28 -33 6
-15 20 -35 31 -44 17 -14 17 -16 2 -32 -10 -9 -15 -21 -12 -25 3 -5 -4 -23
-15 -40 -10 -18 -19 -39 -19 -46 0 -7 -9 -25 -21 -40 -11 -14 -18 -26 -15 -26
3 0 0 -13 -5 -30 -6 -16 -15 -30 -19 -30 -4 0 -11 -16 -14 -35 -4 -19 -11 -35
-15 -35 -5 0 -11 -13 -14 -29 -3 -16 -13 -36 -22 -45 -9 -9 -14 -20 -11 -24 3
-5 -4 -23 -15 -40 -10 -18 -19 -39 -19 -46 0 -7 -9 -25 -20 -38 -10 -14 -17
-28 -14 -30 7 -7 -17 -58 -28 -58 -4 0 -8 -10 -8 -23 0 -12 -6 -31 -14 -42 -7
-11 -17 -31 -21 -45 -4 -14 -13 -32 -20 -40 -8 -8 -14 -18 -14 -23 -2 -24 -14
-57 -22 -57 -5 0 -9 -8 -9 -19 0 -10 -9 -30 -20 -43 -10 -14 -17 -28 -14 -30
7 -8 -18 -58 -28 -58 -6 0 -8 -6 -5 -12 2 -7 -3 -29 -13 -48 -10 -19 -23 -48
-29 -64 -7 -16 -15 -26 -18 -22 -3 3 -12 1 -18 -4 -11 -9 -30 -13 -125 -25
-14 -1 -33 -6 -43 -10 -10 -4 -30 -8 -45 -10 -15 -1 -34 -4 -42 -8 -17 -6 -81
-18 -120 -22 -14 -1 -33 -6 -43 -10 -10 -4 -30 -8 -45 -9 -15 -1 -33 -5 -40
-9 -7 -5 -22 -7 -35 -6 -12 1 -35 -3 -51 -10 -16 -6 -36 -9 -44 -6 -8 3 -20 1
-26 -3 -10 -9 -64 -20 -126 -27 -14 -1 -33 -6 -43 -10 -10 -4 -30 -8 -45 -10
-15 -1 -34 -4 -42 -8 -20 -7 -89 -19 -120 -20 -14 -1 -27 -5 -30 -8 -5 -8 -69
-19 -125 -22 -16 -1 -33 -5 -36 -10 -3 -4 -23 -9 -45 -12 -21 -2 -64 -10 -94
-16 -30 -6 -66 -12 -80 -12 -14 -1 -27 -5 -30 -8 -5 -8 -69 -19 -125 -22 -16
-1 -33 -6 -36 -10 -3 -4 -21 -9 -40 -11 -19 -2 -41 -6 -49 -9 -18 -7 -84 -17
-125 -20 -16 -1 -32 -5 -35 -9 -5 -6 -40 -13 -120 -22 -14 -2 -33 -7 -43 -11
-10 -4 -30 -8 -45 -10 -15 -1 -34 -4 -42 -8 -17 -6 -81 -18 -120 -22 -14 -1
-33 -6 -43 -10 -10 -4 -30 -8 -45 -9 -15 -1 -33 -5 -40 -9 -7 -5 -22 -7 -35
-6 -12 1 -35 -3 -51 -10 -16 -6 -37 -9 -46 -6 -10 3 -21 1 -25 -5 -3 -5 -21
-10 -40 -10 -28 0 -33 -4 -33 -22 0 -13 -3 -48 -7 -78 -4 -30 -8 -66 -10 -80
-2 -14 -6 -43 -9 -65 -2 -22 -15 -123 -28 -225 -12 -102 -25 -186 -28 -188 -3
-1 -4 -20 -2 -42 3 -24 0 -40 -7 -40 -6 0 -8 -11 -5 -30 4 -16 3 -37 -1 -47
-4 -10 -7 -30 -6 -45 1 -15 -1 -33 -5 -40 -5 -7 -7 -27 -5 -44 1 -18 -2 -35
-8 -39 -6 -3 -8 -17 -5 -31 3 -13 3 -32 -1 -41 -5 -10 -9 -34 -10 -53 -3 -33
-8 -75 -19 -163 -7 -54 -14 -106 -20 -157 -12 -99 -22 -181 -30 -237 -3 -24
-8 -60 -10 -80 -6 -46 -15 -116 -21 -163 -3 -19 -12 -91 -20 -160 -8 -69 -17
-139 -20 -157 -5 -28 -3 -33 20 -39 14 -3 25 -10 25 -14 0 -4 18 -10 40 -14
22 -3 40 -11 40 -17 0 -5 6 -9 13 -8 17 3 67 -12 67 -20 0 -3 11 -7 25 -7 14
-1 32 -8 41 -15 8 -7 27 -14 40 -15 14 -2 32 -8 40 -15 9 -7 27 -14 41 -15 14
-2 31 -8 36 -13 6 -6 20 -11 32 -11 11 0 29 -6 40 -14 11 -7 37 -16 58 -20 20
-4 37 -11 37 -16 0 -6 10 -10 23 -10 12 0 33 -7 45 -16 13 -9 26 -14 29 -10 3
3 20 -2 37 -11 17 -9 41 -18 54 -19 13 -2 30 -8 38 -15 9 -7 27 -14 41 -15 14
-2 31 -8 36 -13 6 -6 18 -11 27 -11 8 0 28 -7 44 -15 15 -8 36 -15 45 -15 10
0 26 -7 37 -15 10 -8 28 -15 40 -15 11 0 29 -7 40 -15 10 -8 27 -15 37 -15 10
0 28 -5 40 -12 12 -6 32 -13 45 -14 13 -2 30 -8 38 -15 9 -7 27 -14 40 -15 14
-2 32 -8 40 -15 9 -7 27 -14 41 -15 14 -2 31 -8 36 -13 6 -6 20 -11 32 -11 12
0 30 -7 41 -15 10 -8 28 -15 40 -15 11 0 29 -7 40 -15 10 -8 28 -15 39 -15 11
0 30 -7 41 -15 12 -8 24 -12 27 -9 3 3 20 -2 39 -12 18 -10 43 -19 56 -20 13
-2 30 -8 38 -15 9 -7 27 -14 41 -15 14 -2 31 -8 36 -13 6 -6 18 -11 27 -11 8
0 28 -7 44 -15 15 -8 36 -15 45 -15 10 0 26 -7 37 -15 10 -8 27 -15 37 -15 10
0 28 -5 40 -12 12 -7 30 -13 40 -15 10 -2 28 -9 40 -15 12 -7 26 -11 30 -10 4
1 22 -5 40 -15 18 -9 42 -18 55 -19 13 -2 29 -7 35 -12 7 -5 27 -13 45 -17 26
-5 37 -15 49 -42 8 -20 12 -42 8 -51 -3 -8 -1 -18 4 -21 5 -4 12 -24 15 -46 3
-22 10 -62 17 -90 6 -27 13 -61 14 -75 1 -14 8 -38 14 -54 7 -16 10 -35 7 -42
-3 -8 -1 -16 4 -19 6 -4 10 -24 10 -45 0 -21 4 -41 9 -44 8 -5 21 -73 24 -126
1 -14 5 -28 10 -31 4 -3 9 -21 11 -40 2 -19 6 -41 9 -49 4 -8 9 -28 11 -45 3
-16 12 -61 20 -99 9 -38 14 -72 11 -74 -3 -3 0 -11 6 -18 5 -7 11 -27 13 -46
2 -18 6 -40 9 -48 6 -16 16 -68 21 -110 2 -14 8 -37 14 -52 15 -38 9 -76 -17
-94 -12 -9 -47 -42 -78 -75 -32 -32 -63 -59 -71 -59 -7 0 -11 -4 -8 -9 6 -9
-33 -49 -49 -50 -5 -1 -10 -5 -10 -11 0 -5 -10 -17 -23 -26 -12 -8 -48 -42
-79 -75 -32 -32 -63 -59 -71 -59 -7 0 -11 -4 -8 -9 5 -8 -34 -51 -44 -48 -3 1
-43 -38 -90 -86 -47 -48 -91 -87 -98 -87 -7 0 -11 -4 -8 -9 3 -4 -6 -19 -19
-31 -14 -13 -25 -20 -25 -17 0 4 -40 -33 -88 -83 -49 -49 -94 -90 -100 -90 -7
0 -12 -6 -12 -13 0 -8 -9 -22 -20 -32 -11 -10 -20 -15 -20 -11 0 3 -40 -34
-88 -84 -49 -49 -93 -90 -98 -90 -5 0 -14 -10 -19 -22 -6 -12 -18 -26 -29 -32
-10 -6 -56 -48 -101 -93 -45 -46 -86 -83 -91 -83 -5 0 -14 -10 -19 -22 -6 -12
-19 -26 -29 -32 -10 -6 -42 -35 -71 -63 -28 -29 -55 -53 -61 -53 -5 0 -14 -10
-19 -23 -6 -12 -19 -26 -31 -31 -11 -5 -25 -18 -30 -29 -5 -11 -17 -25 -28
-31 -10 -6 -42 -35 -70 -63 -27 -29 -55 -53 -61 -53 -6 0 -15 -10 -20 -22 -6
-13 -20 -27 -32 -33 -13 -5 -23 -15 -23 -22 0 -7 -11 -20 -25 -29 l-25 -16 25
-30 c14 -16 25 -35 25 -41 0 -7 9 -23 20 -37 11 -14 20 -31 20 -38 0 -7 9 -22
20 -34 11 -12 20 -28 20 -35 0 -8 9 -23 20 -35 11 -12 20 -28 20 -35 0 -8 9
-23 20 -35 11 -12 20 -28 20 -35 0 -8 9 -23 20 -35 11 -12 20 -30 20 -40 0
-10 4 -18 8 -18 7 0 34 -44 36 -60 1 -3 11 -19 23 -36 12 -17 20 -34 17 -37
-3 -2 7 -17 21 -33 14 -15 24 -32 22 -37 -2 -6 7 -22 20 -35 13 -14 21 -32 19
-39 -3 -8 1 -16 9 -19 8 -3 20 -21 27 -40 6 -19 15 -34 19 -34 4 0 13 -16 20
-35 7 -19 16 -35 20 -35 4 0 13 -16 20 -35 7 -19 16 -35 20 -35 4 0 12 -15 20
-32 7 -18 21 -44 31 -57 10 -13 18 -30 18 -37 0 -8 9 -23 20 -34 11 -11 20
-27 20 -35 0 -8 9 -24 20 -35 11 -11 20 -29 20 -40 0 -11 4 -20 10 -20 12 0
41 -55 33 -64 -4 -3 -1 -6 5 -6 6 0 18 -13 27 -30 9 -16 12 -30 8 -30 -4 0 3
-9 15 -20 12 -11 25 -32 28 -45 3 -14 10 -25 14 -25 5 0 14 -16 21 -35 7 -19
16 -35 20 -35 4 0 12 -15 20 -32 7 -18 21 -44 31 -57 10 -13 18 -30 18 -37 0
-8 9 -23 20 -34 11 -11 20 -27 20 -35 0 -8 9 -24 20 -35 11 -11 20 -29 20 -40
0 -11 4 -20 10 -20 5 0 16 -13 25 -30 9 -16 13 -30 10 -30 -3 0 4 -9 14 -19
13 -13 29 -18 48 -15 15 3 42 6 58 8 17 2 38 7 48 11 10 4 30 8 45 10 15 1 34
4 42 8 17 6 83 18 120 22 14 1 32 4 40 8 17 6 81 18 120 22 14 1 33 6 43 10
10 4 30 8 45 9 15 1 33 5 40 9 7 5 22 7 35 6 12 -1 30 1 40 6 10 4 30 8 45 10
15 1 34 4 42 8 17 6 81 18 120 22 14 1 32 5 40 8 14 5 58 13 120 21 14 2 33 7
43 11 10 4 30 8 45 10 15 1 34 4 42 8 14 5 98 20 130 22 8 1 22 4 30 7 15 6
68 16 121 22 14 1 31 6 37 10 10 6 32 10 122 21 14 1 33 6 43 10 10 4 30 8 45
10 15 1 34 4 42 8 17 6 81 18 120 22 14 1 32 5 40 9 18 7 84 17 125 19 17 1
33 5 36 10 3 4 21 9 40 11 19 2 41 6 49 9 14 5 97 20 130 23 8 1 22 4 30 7 8
3 31 8 50 11 19 2 48 8 64 12 21 5 27 4 22 -5 -4 -6 -1 -11 8 -11 8 0 25 -12
38 -28 12 -15 36 -37 51 -49 15 -12 28 -24 28 -27 -1 -3 1 -5 3 -3 8 4 55 -46
50 -54 -3 -5 1 -9 8 -9 8 0 39 -26 70 -57 30 -32 64 -63 74 -69 11 -6 24 -21
30 -32 6 -12 13 -20 15 -17 3 2 38 -30 78 -71 41 -40 78 -74 82 -74 5 0 9 -6
9 -13 0 -7 10 -17 22 -22 13 -6 28 -20 34 -32 6 -13 13 -21 16 -18 2 2 29 -21
60 -53 30 -31 64 -62 74 -68 11 -6 23 -20 29 -32 5 -12 14 -22 20 -22 6 0 34
-25 63 -55 29 -30 64 -62 78 -71 13 -9 24 -21 24 -28 0 -6 10 -16 23 -21 12
-6 26 -20 32 -32 5 -13 15 -23 21 -23 5 0 25 -16 42 -36 30 -33 32 -39 22 -70
-5 -19 -14 -49 -20 -67 -6 -18 -10 -45 -10 -60 0 -14 -4 -28 -8 -31 -5 -3 -9
-19 -10 -36 0 -16 -4 -35 -9 -42 -4 -7 -9 -28 -10 -47 -1 -19 -6 -37 -10 -40
-4 -3 -9 -21 -10 -40 -1 -19 -7 -39 -12 -44 -5 -5 -7 -15 -5 -21 3 -7 0 -26
-7 -42 -6 -16 -13 -44 -15 -63 -2 -19 -7 -37 -11 -40 -4 -3 -9 -21 -10 -40 -1
-18 -6 -37 -12 -41 -7 -3 -9 -13 -6 -22 3 -8 1 -28 -6 -44 -6 -16 -13 -38 -14
-49 -3 -20 -17 -86 -36 -160 -6 -22 -13 -53 -15 -70 -3 -16 -9 -39 -14 -50 -8
-19 -13 -42 -26 -125 -3 -19 -8 -39 -13 -45 -4 -5 -8 -23 -9 -38 -1 -16 -5
-34 -9 -40 -4 -7 -9 -27 -10 -46 -1 -19 -6 -37 -10 -40 -4 -3 -9 -21 -10 -40
-1 -19 -7 -37 -13 -41 -6 -4 -8 -13 -5 -22 3 -8 0 -28 -6 -44 -7 -16 -11 -34
-10 -40 1 -7 -4 -25 -10 -40 -7 -16 -11 -37 -10 -46 1 -10 -3 -28 -10 -40 -7
-13 -14 -34 -15 -48 -3 -26 -14 -80 -34 -160 -6 -25 -14 -58 -16 -75 -3 -16
-8 -37 -11 -45 -4 -8 -8 -26 -9 -39 -2 -13 -6 -31 -10 -40 -4 -9 -9 -27 -10
-40 -2 -13 -6 -31 -10 -40 -4 -9 -8 -31 -10 -50 -2 -19 -7 -37 -11 -40 -4 -3
-9 -22 -10 -41 -2 -19 -7 -36 -13 -38 -12 -4 -1 -52 16 -69 7 -7 19 -13 27
-13 8 0 26 -9 40 -20 14 -11 31 -20 39 -20 8 0 24 -9 36 -20 12 -11 27 -20 35
-20 8 0 26 -9 41 -21 14 -11 26 -18 26 -14 0 3 14 -1 30 -10 17 -9 30 -21 30
-27 0 -6 3 -9 6 -5 8 8 127 -53 137 -70 5 -7 12 -11 18 -8 5 4 21 -2 37 -13
15 -10 42 -24 60 -31 17 -8 32 -17 32 -22 0 -5 9 -9 20 -9 11 0 28 -8 39 -19
10 -10 30 -21 44 -25 14 -3 32 -13 41 -21 8 -8 22 -15 30 -15 9 0 25 -9 36
-20 11 -11 26 -20 34 -20 7 0 25 -9 40 -21 14 -11 26 -18 26 -14 0 3 13 -1 30
-10 17 -9 30 -20 30 -26 0 -6 7 -9 15 -5 8 3 28 -6 45 -20 16 -14 30 -23 30
-20 0 6 122 -53 130 -64 3 -3 20 -12 38 -19 17 -8 32 -17 32 -21 0 -4 13 -10
29 -13 16 -3 36 -13 44 -22 9 -8 22 -15 29 -15 8 0 24 -9 36 -20 12 -11 27
-20 35 -20 8 0 26 -9 40 -20 14 -11 32 -20 41 -20 9 0 25 -9 36 -20 11 -11 26
-20 34 -20 7 0 25 -9 40 -21 14 -11 26 -18 26 -14 0 3 13 -1 30 -10 17 -9 30
-20 30 -25 0 -6 3 -9 8 -7 11 3 132 -56 132 -65 0 -4 8 -8 19 -8 10 0 29 -8
42 -18 52 -39 109 -53 109 -27 0 8 12 22 28 32 15 10 35 28 45 40 10 13 24 23
30 23 7 0 17 10 22 22 6 12 18 26 29 32 10 6 42 35 70 64 27 28 56 52 63 52 7
0 13 7 13 15 0 8 4 15 9 15 5 0 28 20 52 45 24 25 50 45 57 45 7 0 11 4 8 9
-3 5 7 17 22 26 15 10 37 31 50 46 13 16 30 29 38 29 8 0 14 7 14 15 0 8 12
22 28 32 15 10 35 28 45 40 10 13 24 23 30 23 7 0 17 10 22 22 6 12 18 26 29
32 10 6 42 35 70 64 27 28 54 52 58 52 4 0 33 27 65 60 31 33 63 60 71 60 7 0
11 4 8 9 -3 5 7 17 22 26 15 10 37 31 50 46 13 16 30 29 38 29 8 0 14 7 14 15
0 8 12 22 28 32 15 10 35 28 45 40 10 13 24 23 30 23 7 0 17 10 22 22 6 12 18
26 29 32 10 6 42 35 70 64 27 28 54 52 58 52 4 0 33 27 64 60 32 32 61 57 66
54 5 -4 12 3 15 14 2 11 15 25 28 32 13 7 33 25 44 41 12 16 28 29 36 29 8 0
15 6 15 14 0 7 12 22 28 32 15 10 35 28 45 41 10 13 25 23 33 23 8 0 14 6 14
13 0 35 67 53 118 32 9 -4 31 -9 47 -10 68 -7 120 -17 125 -23 3 -4 19 -8 35
-9 41 -2 107 -12 125 -19 8 -4 26 -8 40 -9 39 -4 103 -16 120 -22 8 -4 26 -7
40 -9 85 -9 130 -17 130 -24 0 -4 12 -7 28 -7 33 -1 111 -13 132 -20 8 -3 22
-6 30 -7 34 -3 116 -18 130 -23 8 -4 27 -7 42 -8 15 -2 35 -6 45 -10 10 -5 28
-7 40 -6 13 1 28 -1 35 -6 7 -4 25 -8 40 -9 15 -1 35 -5 45 -9 10 -4 32 -9 48
-10 76 -8 120 -17 123 -26 2 -5 15 -6 28 -3 16 4 24 2 26 -7 3 -30 5 -35 22
-67 10 -19 15 -36 12 -39 -3 -3 1 -15 9 -27 8 -11 15 -30 15 -41 0 -11 7 -29
15 -39 8 -11 15 -29 15 -41 0 -12 5 -26 11 -32 5 -5 11 -21 13 -34 1 -13 10
-39 20 -57 9 -18 14 -37 11 -42 -4 -6 1 -17 9 -26 14 -14 21 -35 17 -57 -1 -4
5 -15 14 -23 8 -9 15 -28 15 -44 0 -16 4 -30 8 -32 10 -4 43 -94 45 -123 1
-11 8 -26 15 -33 12 -13 16 -33 13 -59 -1 -7 2 -13 7 -13 11 0 27 -47 23 -67
-1 -7 3 -13 8 -13 6 0 13 -17 17 -37 4 -21 14 -48 21 -60 8 -12 13 -28 10 -35
-2 -7 2 -20 10 -29 8 -9 15 -27 17 -40 1 -13 10 -38 19 -55 9 -17 14 -34 11
-37 -4 -3 1 -16 10 -29 9 -12 16 -32 16 -43 0 -11 7 -29 15 -39 8 -11 15 -29
15 -41 0 -12 5 -26 11 -32 5 -5 11 -21 13 -34 1 -13 10 -39 20 -57 9 -18 14
-37 11 -42 -4 -6 1 -17 9 -26 15 -15 20 -34 17 -61 -1 -7 3 -13 8 -13 6 0 13
-17 17 -37 4 -21 10 -40 14 -43 9 -7 41 -100 43 -125 1 -11 8 -26 15 -33 12
-13 16 -33 13 -59 -1 -7 2 -13 7 -13 11 0 27 -47 23 -68 -1 -6 3 -12 8 -12 6
0 13 -17 17 -37 4 -21 11 -43 16 -50 5 -6 10 -23 12 -37 1 -13 8 -31 15 -40 7
-8 13 -25 15 -38 1 -13 10 -37 19 -54 9 -17 14 -34 11 -37 -6 -6 25 -58 40
-69 6 -4 16 -2 22 3 7 5 29 9 50 9 68 -1 192 8 203 14 5 4 27 6 48 6 68 -1
191 8 202 14 5 4 27 7 48 6 107 0 193 6 193 13 0 4 19 8 43 7 23 0 62 2 87 4
25 2 83 7 130 11 107 8 144 11 250 20 47 4 103 9 125 10 22 2 78 6 125 10 47
4 103 9 125 10 76 6 210 17 245 20 19 2 71 6 115 8 44 3 87 8 96 12 9 3 27 5
40 3 13 -1 61 1 105 5 l82 8 5 32 c3 18 10 51 16 75 6 23 15 59 19 80 5 21 13
45 18 53 4 8 7 22 6 31 -2 10 3 28 10 40 6 13 11 28 10 34 -1 7 3 25 9 40 7
16 11 34 10 40 -1 7 4 25 10 40 7 16 11 34 10 40 -1 7 4 25 10 40 7 16 11 34
10 40 -1 7 4 25 11 40 6 16 13 42 15 58 2 16 7 34 11 40 5 6 9 24 10 40 1 16
6 34 10 40 5 6 9 24 10 40 1 16 7 35 12 41 6 7 9 17 8 21 -2 5 3 28 10 52 6
23 17 61 23 85 6 23 15 56 20 73 5 17 9 39 9 50 0 11 6 29 14 39 8 11 12 24 9
30 -2 7 2 25 8 41 7 16 11 34 10 40 -1 7 4 25 10 40 7 16 11 34 10 40 -1 7 4
25 10 40 7 16 13 40 15 53 2 13 6 31 10 40 4 9 8 27 10 40 2 13 6 31 10 40 4
9 8 29 10 45 2 16 8 34 12 40 5 6 9 24 10 40 1 16 6 34 11 40 5 6 11 25 14 41
3 17 11 49 16 73 6 23 15 59 20 80 30 122 53 208 58 216 4 5 7 23 9 39 1 16 6
32 10 36 5 3 10 21 10 40 1 18 5 36 10 40 5 3 10 21 11 40 1 19 8 38 14 42 6
4 8 12 4 19 -9 15 12 30 43 30 12 0 22 4 22 10 0 5 18 13 40 16 22 4 40 10 40
14 0 5 14 11 31 15 17 4 42 13 57 21 15 8 34 14 43 14 8 0 20 5 26 11 5 5 21
11 34 13 13 1 38 10 56 19 18 10 36 16 40 15 4 -1 22 6 40 15 18 9 36 16 40
15 4 -1 18 3 30 10 12 6 30 13 40 15 10 2 28 8 40 15 12 7 30 12 40 12 10 0
27 7 37 15 11 8 29 15 40 15 12 0 30 7 40 15 11 8 29 15 41 15 12 0 26 5 32
11 5 5 22 11 36 13 14 1 32 8 41 15 8 7 26 13 40 15 13 1 31 8 39 14 7 6 24
13 38 14 13 2 30 9 37 16 12 11 35 16 55 13 4 -1 15 5 23 14 15 14 34 19 62
16 6 -1 12 2 12 7 0 33 103 12 117 -24 3 -7 12 -14 20 -14 7 0 24 -10 36 -22
13 -13 35 -29 50 -35 15 -7 30 -20 33 -28 4 -8 12 -15 19 -15 6 0 23 -10 37
-22 13 -13 36 -29 51 -37 15 -8 27 -18 27 -22 0 -5 15 -15 34 -24 19 -9 37
-23 40 -31 3 -8 12 -14 20 -14 8 0 23 -11 34 -25 11 -14 27 -25 35 -25 9 0 24
-11 35 -25 11 -13 21 -22 24 -20 3 3 18 -7 34 -22 16 -15 32 -27 35 -26 4 1
19 -9 33 -22 15 -14 31 -25 35 -25 4 0 20 -11 35 -25 15 -14 30 -25 34 -25 4
0 19 -11 34 -25 15 -14 31 -25 37 -25 5 0 18 -11 29 -25 11 -14 27 -25 35 -25
9 0 24 -10 34 -23 10 -12 31 -28 46 -34 15 -7 30 -20 33 -28 4 -8 13 -15 21
-15 7 0 25 -11 38 -24 13 -13 26 -22 28 -20 2 2 17 -8 33 -23 16 -15 32 -28
36 -28 3 0 17 -10 31 -21 13 -12 29 -23 34 -25 13 -5 70 -48 97 -74 12 -11 34
-26 49 -32 15 -7 30 -20 33 -28 4 -8 13 -15 21 -15 7 0 25 -11 39 -25 14 -14
29 -25 33 -25 4 0 20 -11 35 -25 15 -14 31 -25 35 -25 4 0 20 -11 35 -25 15
-14 31 -25 35 -25 5 0 19 -11 32 -25 13 -13 29 -25 36 -25 6 0 20 -11 31 -25
11 -14 27 -25 35 -25 9 0 24 -10 34 -22 10 -13 25 -24 33 -26 8 -2 23 -13 34
-25 10 -12 22 -21 26 -20 4 1 20 -9 34 -22 15 -14 31 -25 35 -25 4 0 19 -10
33 -22 13 -13 37 -30 52 -38 15 -8 32 -23 37 -33 10 -17 12 -16 30 7 11 15 25
26 30 26 6 0 22 11 37 25 15 14 30 25 34 25 4 0 19 11 34 25 15 14 31 25 35
25 4 0 20 11 35 25 14 13 29 23 33 22 3 -1 18 10 33 23 33 32 46 42 83 66 17
10 40 28 53 39 13 11 27 20 30 20 4 0 20 13 36 28 16 14 32 24 36 22 4 -3 10
2 14 10 3 8 18 21 33 28 15 6 36 22 46 34 10 13 27 23 38 23 10 0 19 6 19 14
0 7 16 21 35 30 19 9 35 20 35 25 0 4 12 14 27 22 15 8 37 24 49 36 13 13 30
23 37 23 8 0 17 7 21 15 3 8 18 21 33 28 15 6 36 22 46 34 10 13 23 23 28 23
6 0 22 11 37 25 15 14 30 25 34 25 4 0 19 11 34 25 15 14 31 25 35 25 4 0 20
11 35 25 15 14 31 25 35 25 4 0 19 10 32 22 30 28 86 72 100 77 5 2 21 13 34
25 14 11 28 21 31 21 4 0 20 13 36 28 16 14 32 24 37 22 4 -3 13 3 18 14 6 11
21 23 33 27 12 4 31 17 41 30 10 13 27 24 38 24 10 0 19 6 19 14 0 7 16 21 35
30 19 9 35 20 35 25 0 4 12 14 27 22 15 8 37 24 49 37 13 12 28 22 33 22 6 0
21 11 35 25 14 14 33 25 42 25 13 0 15 6 9 28 -4 15 -8 34 -9 42 0 8 -7 21
-13 28 -12 12 -17 35 -14 55 1 4 -5 15 -14 23 -14 14 -20 35 -16 57 1 4 -5 15
-14 23 -8 9 -15 29 -15 45 0 16 -4 29 -10 29 -5 0 -13 18 -16 40 -4 22 -10 40
-14 40 -5 0 -11 14 -15 31 -4 17 -13 42 -21 57 -8 15 -14 34 -14 42 0 9 -5 21
-11 27 -5 5 -11 22 -13 36 -1 14 -8 32 -15 41 -7 8 -13 25 -15 38 -1 13 -10
37 -19 55 -10 18 -16 36 -15 40 1 4 -6 23 -16 41 -9 19 -15 36 -12 39 3 3 -1
15 -9 27 -8 11 -15 31 -15 43 0 13 -4 23 -10 23 -5 0 -13 18 -16 40 -4 22 -10
40 -15 40 -4 0 -11 17 -15 38 -4 20 -13 46 -20 57 -8 11 -14 29 -14 40 0 11
-7 29 -15 39 -8 11 -15 27 -15 36 0 9 -7 31 -16 48 -8 18 -13 36 -9 42 3 5 2
10 -3 10 -12 0 -33 56 -25 64 3 3 -2 12 -11 21 -14 15 -21 36 -17 58 1 4 -5
15 -14 23 -14 14 -20 35 -16 57 1 4 -5 15 -14 23 -8 9 -15 29 -15 45 0 16 -4
29 -9 29 -5 0 -12 14 -16 31 -4 17 -13 42 -21 57 -8 15 -14 32 -14 38 0 7 -7
25 -15 40 -8 16 -15 36 -15 44 0 9 -5 21 -11 27 -5 5 -11 22 -13 36 -1 14 -8
32 -15 41 -7 8 -13 25 -15 38 -1 13 -10 37 -19 55 -10 18 -16 36 -15 40 1 4
-5 22 -15 39 -9 17 -14 34 -11 37 4 3 -1 16 -10 29 -9 12 -16 33 -16 45 0 13
-4 23 -10 23 -5 0 -12 17 -16 38 -4 20 -12 40 -17 44 -6 4 -11 23 -11 44 0 27
7 42 27 60 15 13 27 27 27 32 0 5 11 21 24 35 13 14 26 30 27 35 5 13 49 70
77 99 12 13 22 28 22 32 0 4 11 20 25 35 14 15 25 31 25 36 0 5 11 17 25 28
14 11 25 25 25 31 0 7 11 23 24 36 13 13 26 28 27 33 6 14 50 71 79 101 13 14
24 29 23 32 -1 4 10 20 25 35 14 16 27 32 27 35 0 8 45 67 75 98 13 14 24 29
23 32 -1 4 10 20 25 35 14 16 27 31 27 34 2 15 32 50 43 50 7 0 11 4 8 9 -11
17 20 29 64 24 25 -2 65 -5 90 -5 25 0 49 -2 54 -5 4 -3 43 -8 85 -10 42 -2
96 -6 121 -9 25 -2 62 -4 83 -4 21 0 43 -2 49 -6 11 -7 134 -15 206 -14 23 0
42 -3 42 -7 0 -7 59 -11 198 -13 28 0 52 -4 52 -8 0 -4 30 -8 68 -9 37 -1 90
-3 117 -4 28 0 54 -4 59 -6 4 -3 43 -8 85 -10 42 -2 96 -6 121 -9 25 -2 62 -4
83 -4 21 0 43 -2 49 -6 11 -7 134 -15 206 -14 23 0 42 -3 42 -7 0 -7 59 -11
198 -13 28 0 52 -4 52 -8 0 -4 30 -8 68 -9 37 -1 90 -3 117 -4 28 0 54 -4 59
-6 4 -3 43 -8 85 -10 42 -2 96 -6 121 -9 25 -2 55 -5 68 -5 25 -1 51 26 52 52
0 9 9 28 20 41 10 14 17 28 14 30 -7 8 18 58 29 58 5 0 7 6 4 14 -3 7 3 27 13
43 10 16 21 44 25 61 3 18 10 32 15 32 4 0 10 14 14 32 3 17 13 39 20 47 15
16 16 20 16 45 0 8 7 21 15 30 9 8 14 19 13 23 -4 14 13 53 23 53 5 0 9 9 9
21 0 11 6 33 14 47 8 15 20 42 26 60 7 17 15 32 19 32 3 0 7 12 7 26 1 14 10
34 20 45 9 10 14 19 11 19 -3 0 -1 14 4 30 6 17 15 30 20 30 5 0 9 9 9 21 0
11 6 33 14 47 8 15 20 42 26 60 7 17 17 32 22 32 5 0 7 4 3 9 -7 12 15 61 27
61 5 0 8 6 7 13 -3 19 12 67 22 67 5 0 9 10 9 23 0 13 7 32 15 43 8 10 15 26
15 35 0 9 9 28 20 41 10 14 17 28 14 30 -7 8 18 58 29 58 5 0 7 6 4 14 -3 7 3
27 13 43 10 16 21 44 25 61 3 18 11 32 16 32 5 0 9 7 9 16 0 9 6 30 14 47 7
18 19 47 26 65 7 17 17 32 22 32 5 0 7 4 3 9 -6 11 15 61 25 61 4 0 10 18 14
40 3 22 11 40 16 40 6 0 10 8 10 18 1 9 9 35 20 57 11 22 19 45 20 51 0 6 7
17 15 24 8 6 14 15 13 18 -2 22 4 43 18 57 9 9 14 19 11 22 -4 3 0 18 9 34 16
33 15 43 -6 46 -8 1 -22 10 -30 20 -8 10 -28 24 -43 30 -15 7 -30 20 -33 28
-4 8 -13 15 -21 15 -7 0 -25 11 -39 25 -14 14 -29 25 -35 25 -5 0 -21 11 -35
25 -13 13 -27 24 -31 23 -7 -2 -66 38 -97 67 -12 11 -34 26 -49 32 -15 7 -30
20 -33 28 -4 8 -14 15 -24 15 -10 0 -27 11 -38 25 -11 14 -26 25 -34 25 -8 0
-23 8 -34 18 -10 10 -34 27 -51 37 -18 11 -33 23 -33 27 0 4 -6 8 -13 8 -7 0
-23 10 -37 23 -14 12 -37 28 -52 36 -16 8 -28 18 -28 22 0 5 -16 16 -35 25
-19 9 -35 20 -35 25 0 4 -16 16 -35 25 -19 9 -35 20 -35 25 0 5 -6 9 -14 9 -7
0 -25 11 -40 25 -15 14 -31 25 -35 25 -4 0 -20 11 -35 25 -15 14 -31 25 -35
25 -4 0 -20 11 -35 25 -15 14 -30 25 -35 25 -4 0 -18 10 -31 23 -14 12 -28 21
-31 20 -4 -1 -19 9 -33 22 -15 14 -31 25 -35 25 -4 0 -20 11 -35 25 -15 14
-31 25 -35 25 -4 0 -19 10 -32 23 -14 12 -37 28 -52 34 -15 7 -30 20 -33 28
-4 8 -10 13 -14 10 -4 -2 -20 8 -36 22 -16 15 -32 27 -35 26 -4 -1 -18 8 -31
20 -13 12 -36 28 -51 34 -15 7 -30 20 -33 28 -4 8 -13 15 -21 15 -7 0 -24 10
-36 23 -13 12 -35 28 -50 34 -15 7 -30 20 -33 28 -4 8 -10 13 -14 10 -4 -2
-20 7 -36 22 -16 15 -36 28 -44 30 -8 1 -22 10 -30 20 -8 10 -28 24 -43 30
-15 7 -30 20 -33 28 -4 8 -13 15 -21 15 -7 0 -25 11 -39 25 -14 14 -31 25 -39
25 -7 0 -22 10 -32 23 -10 12 -25 23 -33 25 -29 7 -36 22 -33 69 2 26 5 84 7
128 4 79 10 173 20 330 6 98 13 222 20 335 3 47 6 121 8 165 2 48 7 80 14 80
6 0 18 8 28 18 16 16 30 21 49 18 4 0 16 8 27 19 11 11 27 20 36 20 8 0 22 7
30 15 9 8 27 18 42 22 14 3 35 15 46 25 11 10 28 18 38 18 10 0 18 4 18 8 0
12 50 33 61 26 5 -3 12 2 15 10 5 13 31 27 54 31 3 0 16 8 30 17 14 9 32 18
40 20 8 2 23 11 34 21 11 9 28 17 38 17 10 0 27 9 38 20 11 11 27 20 36 20 8
0 22 7 31 15 8 9 28 19 44 22 16 3 29 9 29 13 0 4 15 13 33 21 17 7 44 22 59
32 14 11 31 16 37 13 6 -4 11 -3 11 3 0 6 14 17 30 26 17 9 30 13 30 10 0 -4
12 3 26 14 15 12 33 21 41 21 8 0 21 7 29 15 9 8 27 18 41 21 14 4 34 15 44
25 11 11 28 19 39 19 11 0 20 4 20 8 0 12 50 33 61 27 5 -4 9 -2 9 4 0 6 14
17 30 26 17 9 30 13 30 10 0 -4 12 3 26 14 15 12 33 21 41 21 8 0 23 9 35 20
12 11 30 20 40 20 10 0 27 9 38 20 11 11 29 20 39 20 11 0 21 4 23 8 4 10 128
74 128 66 0 -3 14 6 31 21 18 14 38 24 45 21 8 -3 14 -1 14 4 0 5 14 16 30 25
17 9 30 13 30 10 0 -4 12 3 26 14 15 12 35 21 45 21 11 0 19 4 19 9 0 5 15 14
33 22 17 7 43 21 56 31 13 10 32 18 42 18 9 0 19 4 21 8 4 10 128 74 128 66 0
-3 12 4 26 15 15 12 33 21 40 21 7 0 28 14 46 30 24 23 30 33 20 39 -7 4 -14
23 -15 42 -1 19 -6 37 -10 40 -4 3 -9 21 -11 40 -2 19 -8 47 -15 63 -6 15 -11
33 -10 40 1 6 -3 24 -10 40 -6 15 -11 33 -10 40 1 6 -3 24 -10 40 -6 15 -11
33 -10 40 1 6 -3 24 -10 40 -6 15 -11 33 -10 40 1 6 -3 24 -10 40 -6 16 -9 36
-6 44 3 9 0 19 -6 23 -6 4 -12 22 -13 40 0 19 -5 37 -10 40 -5 4 -9 22 -10 40
0 19 -4 37 -9 40 -4 3 -9 21 -10 40 -1 19 -5 37 -10 40 -4 3 -9 21 -10 40 -1
19 -5 37 -10 40 -4 3 -9 21 -10 40 -1 19 -5 37 -10 40 -4 3 -9 21 -10 40 -1
19 -6 37 -10 40 -4 3 -9 21 -11 40 -2 19 -9 47 -15 63 -6 15 -11 33 -10 40 1
6 -3 24 -10 40 -6 15 -11 33 -10 40 1 6 -3 24 -10 40 -6 15 -11 33 -10 40 1 6
-3 24 -10 40 -6 15 -11 33 -10 40 1 6 -3 24 -10 40 -6 15 -11 33 -10 40 1 6
-3 24 -10 40 -6 15 -11 33 -10 40 1 6 -3 24 -10 40 -6 16 -9 36 -6 44 3 9 0
19 -6 23 -6 4 -12 22 -13 40 0 19 -5 37 -10 40 -5 4 -9 22 -10 40 0 19 -5 37
-9 40 -5 4 -9 22 -10 40 -1 19 -6 37 -10 40 -5 4 -9 22 -10 40 -1 19 -6 37
-10 40 -5 4 -9 22 -10 40 -1 19 -6 37 -11 41 -5 3 -10 21 -11 40 -2 18 -8 46
-14 62 -7 16 -10 34 -8 41 6 15 -13 39 -38 49 -20 8 -139 17 -208 16 -21 0
-42 2 -48 6 -11 6 -141 16 -202 14 -21 0 -42 2 -48 5 -5 4 -44 9 -87 11 -112
7 -262 19 -367 30 -22 2 -57 4 -78 4 -21 0 -42 2 -48 6 -11 6 -141 16 -202 14
-21 0 -42 2 -48 5 -5 4 -44 9 -87 11 -91 6 -128 9 -242 19 -98 8 -136 11 -240
19 -41 4 -97 9 -125 12 -27 3 -67 5 -88 4 -21 0 -42 2 -48 6 -11 6 -141 16
-202 14 -21 0 -42 2 -48 5 -9 6 -132 17 -188 17 -17 0 -27 8 -34 29 -6 16 -14
29 -18 29 -4 0 -13 15 -20 33 -7 17 -19 38 -26 45 -7 7 -16 25 -19 39 -4 14
-15 34 -25 44 -11 11 -19 26 -19 34 0 8 -9 24 -20 35 -11 11 -20 29 -20 40 0
11 -4 20 -10 20 -12 0 -41 55 -33 64 4 3 1 6 -5 6 -6 0 -18 14 -27 30 -9 17
-12 30 -8 30 4 0 -3 9 -15 20 -12 11 -25 32 -28 45 -3 14 -10 25 -14 25 -5 0
-14 16 -21 35 -7 19 -16 35 -20 35 -4 0 -13 16 -20 35 -7 19 -16 35 -20 35 -4
0 -12 15 -20 33 -7 17 -21 43 -31 56 -10 13 -18 30 -18 37 0 8 -10 24 -22 36
-19 19 -20 22 -5 33 10 7 17 20 17 29 0 9 8 24 18 34 10 10 24 32 31 49 7 17
19 34 28 37 8 3 12 10 9 15 -4 5 4 22 17 38 12 15 28 40 35 56 6 15 16 27 22
27 5 0 10 8 10 19 0 10 11 30 25 45 13 14 22 26 19 26 -2 0 2 14 11 30 9 17
20 30 25 30 6 0 10 8 10 18 0 10 8 27 18 38 9 10 23 30 30 44 26 53 60 104 71
108 6 2 11 12 11 23 0 10 9 28 20 39 11 11 20 26 20 33 0 7 10 24 22 37 12 13
23 30 24 38 2 7 10 22 19 32 18 19 42 62 69 118 8 18 22 35 30 38 8 3 13 11
10 18 -3 7 7 25 21 40 14 15 25 33 25 40 0 7 8 21 18 32 10 10 24 34 31 52 7
17 17 32 22 32 5 0 9 7 9 15 0 9 11 27 25 41 14 14 25 31 25 39 0 8 9 24 20
35 11 11 20 26 20 34 0 7 12 25 26 40 15 14 24 26 20 26 -4 0 0 14 9 30 9 17
19 30 24 30 5 0 12 11 15 24 3 14 12 31 19 38 7 7 18 24 25 38 26 52 60 104
71 108 6 2 11 11 11 21 0 9 8 26 18 37 10 10 24 33 31 51 7 17 19 34 28 37 8
3 12 10 9 15 -4 5 4 22 17 38 12 15 28 40 35 56 6 15 16 27 22 27 5 0 10 8 10
19 0 10 12 30 26 45 15 14 24 26 20 26 -4 0 0 14 9 30 9 17 20 30 25 30 6 0
10 8 10 18 0 19 -91 122 -108 122 -14 0 -43 36 -35 43 3 4 0 7 -8 7 -8 0 -39
26 -69 58 -30 31 -65 65 -80 74 -14 10 -25 22 -25 28 0 5 -3 9 -7 8 -11 -5
-58 44 -52 53 3 5 -1 9 -8 9 -8 0 -39 26 -70 58 -30 31 -64 62 -74 68 -11 6
-24 21 -30 32 -6 12 -13 20 -16 17 -2 -2 -29 21 -60 53 -30 31 -64 62 -74 68
-11 6 -23 20 -29 32 -5 12 -14 22 -20 22 -5 0 -41 32 -79 70 -38 39 -73 70
-77 70 -5 0 -9 6 -9 13 0 7 -10 17 -22 22 -13 6 -27 20 -33 33 -5 12 -14 22
-20 22 -6 0 -34 24 -61 53 -28 28 -60 57 -70 63 -11 6 -23 20 -29 32 -5 12
-14 22 -19 22 -6 0 -33 24 -61 53 -28 28 -63 60 -78 70 -15 9 -27 24 -27 32 0
8 -5 15 -12 15 -6 0 -42 32 -80 70 -38 39 -73 70 -78 70 -6 0 -10 7 -10 15 0
8 -6 15 -13 15 -17 0 -59 44 -50 53 3 4 0 7 -8 7 -7 0 -39 27 -71 61 -32 33
-58 57 -58 53 0 -4 -11 3 -25 16 -13 12 -22 27 -19 31 3 5 -1 9 -9 9 -8 0 -22
9 -32 20 -19 21 -41 26 -47 12 -4 -10 -128 -74 -128 -66 0 3 -12 -4 -26 -15
-15 -12 -33 -21 -41 -21 -8 0 -21 -7 -29 -15 -9 -8 -27 -18 -41 -21 -14 -4
-34 -15 -44 -25 -11 -11 -28 -19 -39 -19 -11 0 -20 -4 -20 -8 0 -12 -50 -33
-61 -27 -5 4 -9 2 -9 -4 0 -6 -13 -17 -30 -26 -16 -9 -30 -13 -30 -10 0 4 -12
-3 -26 -14 -15 -12 -33 -21 -41 -21 -8 0 -21 -7 -29 -15 -9 -8 -27 -18 -42
-22 -15 -3 -29 -9 -32 -13 -8 -10 -130 -71 -130 -64 0 3 -14 -6 -31 -20 -17
-14 -35 -24 -39 -21 -5 3 -18 -3 -30 -15 -11 -11 -27 -20 -36 -20 -8 0 -22 -7
-30 -15 -9 -8 -27 -18 -42 -22 -15 -3 -29 -9 -32 -13 -7 -10 -130 -71 -130
-64 0 3 -12 -4 -26 -15 -15 -12 -33 -21 -41 -21 -8 0 -21 -7 -30 -15 -8 -9
-28 -19 -44 -22 -16 -3 -29 -9 -29 -14 0 -4 -16 -13 -35 -20 -19 -7 -35 -16
-35 -19 0 -11 -51 -31 -61 -25 -5 4 -9 2 -9 -4 0 -12 -55 -43 -63 -35 -3 3
-15 -4 -26 -15 -12 -12 -28 -21 -37 -21 -8 0 -22 -7 -30 -15 -9 -8 -27 -18
-42 -22 -15 -3 -29 -9 -32 -13 -7 -10 -130 -71 -130 -64 0 3 -12 -4 -26 -15
-15 -12 -33 -21 -40 -21 -8 0 -23 -9 -34 -20 -11 -11 -27 -20 -36 -20 -9 0
-27 -9 -41 -20 -14 -11 -34 -20 -44 -20 -9 0 -19 -4 -21 -8 -4 -10 -128 -74
-128 -66 0 3 -12 -4 -26 -15 -15 -12 -35 -21 -45 -21 -11 0 -19 -4 -19 -9 0
-19 -31 -20 -47 -1 -9 10 -20 17 -25 14 -5 -3 -14 -1 -21 4 -14 12 -80 49
-122 70 -16 8 -39 23 -50 33 -19 17 -24 19 -45 19 -5 0 -18 10 -30 22 -11 12
-20 19 -20 15 0 -4 -13 -1 -30 8 -16 9 -30 20 -30 25 0 6 -9 10 -20 10 -11 0
-29 9 -40 20 -11 11 -27 20 -35 20 -8 0 -23 8 -34 19 -10 10 -30 21 -44 25
-14 3 -32 12 -39 19 -7 7 -28 19 -45 26 -18 7 -33 17 -33 22 0 5 -8 9 -18 9
-10 0 -28 9 -40 20 -12 11 -28 20 -37 20 -8 0 -24 9 -35 20 -11 11 -24 20 -30
20 -13 0 -14 9 -24 407 -3 90 -7 166 -9 170 -3 5 -5 60 -4 124 0 63 -2 120 -5
125 -4 5 -6 61 -5 125 0 63 -2 120 -5 125 -3 5 -7 63 -8 129 0 66 -3 176 -6
245 -12 312 -15 385 -19 537 -2 90 -6 166 -8 170 -3 5 -5 60 -4 124 0 63 -3
121 -7 128 -4 6 -7 26 -5 44 1 17 1 48 0 68 -1 33 -3 35 -35 36 -19 1 -40 5
-47 9 -7 4 -24 9 -37 10 -14 2 -32 6 -41 10 -9 4 -31 8 -50 10 -19 2 -37 8
-41 14 -4 6 -13 8 -22 5 -8 -3 -28 -1 -44 6 -16 6 -38 13 -49 14 -21 3 -92 19
-160 36 -22 6 -57 13 -78 16 -20 3 -40 9 -43 14 -3 5 -22 9 -43 9 -21 0 -41 3
-44 7 -4 3 -21 8 -39 10 -18 2 -36 7 -41 12 -5 5 -15 7 -21 5 -7 -3 -26 1 -42
7 -16 7 -44 13 -63 15 -19 2 -37 8 -41 14 -4 6 -13 8 -22 5 -8 -3 -28 -1 -44
6 -16 6 -40 13 -54 14 -14 2 -45 8 -70 15 -25 6 -62 14 -83 17 -20 3 -40 9
-43 14 -3 5 -20 9 -38 9 -18 0 -36 3 -40 7 -4 4 -20 8 -36 9 -16 1 -37 5 -47
9 -10 4 -29 9 -42 11 -13 2 -31 6 -40 10 -9 3 -31 8 -50 10 -19 2 -37 8 -41
14 -4 6 -13 8 -22 5 -8 -3 -28 -1 -44 6 -16 6 -38 13 -49 14 -11 1 -42 8 -70
15 -27 6 -67 14 -88 17 -20 3 -40 9 -43 14 -3 5 -20 9 -39 9 -19 0 -36 4 -39
9 -3 5 -21 9 -40 9 -19 0 -40 4 -47 8 -7 4 -24 9 -37 10 -14 2 -32 6 -41 10
-9 3 -31 8 -50 10 -19 2 -37 7 -40 11 -3 4 -21 9 -40 10 -19 1 -37 7 -41 13
-4 6 -13 8 -22 5 -8 -3 -28 -1 -44 6 -31 12 -81 17 -93 9z m-1091 -4554 c138
-8 221 -15 380 -31 70 -8 193 -23 240 -30 14 -2 51 -7 83 -11 31 -4 57 -10 57
-14 0 -3 15 -7 33 -7 48 -1 117 -12 129 -19 6 -4 23 -8 37 -9 36 -3 103 -16
121 -22 8 -4 30 -7 49 -9 19 -2 37 -7 40 -11 3 -4 21 -9 40 -10 19 -1 37 -6
40 -10 3 -5 21 -9 40 -9 18 -1 36 -5 40 -10 3 -5 21 -10 40 -10 18 -1 36 -5
40 -10 3 -5 21 -10 40 -11 19 -1 37 -6 40 -11 3 -4 19 -9 36 -10 16 -1 34 -7
39 -12 6 -6 22 -10 37 -10 15 0 35 -7 43 -16 9 -8 20 -13 26 -9 5 3 24 -1 42
-9 18 -8 48 -17 66 -21 17 -4 32 -10 32 -15 0 -4 10 -8 23 -8 23 0 98 -24 129
-42 10 -6 26 -10 36 -10 10 0 27 -7 38 -15 10 -8 29 -15 41 -15 12 0 28 -6 35
-13 7 -8 30 -17 51 -21 20 -4 37 -11 37 -16 0 -6 9 -10 21 -10 11 0 33 -6 47
-14 15 -8 42 -20 60 -26 17 -7 32 -17 32 -22 0 -5 4 -7 9 -3 12 7 61 -15 61
-28 0 -5 6 -7 14 -4 7 3 28 -3 45 -14 17 -10 38 -19 45 -19 7 0 25 -9 40 -21
14 -11 26 -18 26 -15 0 7 123 -54 130 -64 3 -4 17 -10 32 -13 15 -4 33 -14 42
-22 8 -8 22 -15 30 -15 9 0 25 -9 37 -21 11 -11 23 -18 26 -15 4 3 21 -6 40
-20 18 -14 33 -22 33 -19 0 3 14 -1 30 -10 17 -9 30 -20 30 -25 0 -6 9 -10 20
-10 11 0 29 -9 40 -20 11 -11 26 -20 33 -20 7 0 22 -8 33 -18 10 -10 33 -24
51 -31 17 -7 34 -19 37 -28 3 -8 10 -11 16 -8 5 3 21 -5 35 -19 14 -15 32 -26
39 -26 7 0 23 -10 36 -22 13 -12 31 -23 39 -25 9 -1 23 -11 33 -22 9 -12 23
-21 31 -21 8 0 25 -11 38 -25 13 -13 29 -25 35 -25 5 0 21 -10 34 -22 14 -13
28 -23 31 -23 4 0 19 -10 33 -22 15 -13 29 -23 32 -23 10 0 57 -40 48 -40 -5
-1 6 -7 24 -15 18 -8 35 -21 38 -30 3 -8 11 -15 18 -15 12 0 58 -35 105 -80
14 -13 29 -24 33 -23 4 2 18 -11 32 -27 13 -17 29 -30 35 -30 5 0 18 -11 29
-25 11 -14 24 -25 28 -25 14 -1 54 -37 54 -50 0 -6 4 -9 9 -6 5 4 21 -7 34
-24 14 -16 29 -30 33 -30 4 0 31 -24 59 -52 29 -29 61 -58 71 -64 10 -6 23
-20 29 -32 5 -12 14 -22 18 -22 14 0 227 -216 227 -229 0 -7 4 -10 9 -7 9 6
51 -34 48 -46 -1 -3 10 -16 26 -28 15 -12 27 -28 27 -36 0 -8 7 -14 15 -14 8
0 22 -12 32 -27 10 -16 28 -36 40 -46 13 -10 23 -23 23 -28 0 -6 14 -22 30
-36 17 -13 28 -28 25 -32 -2 -4 9 -18 25 -30 17 -12 30 -26 30 -31 0 -5 11
-20 25 -34 14 -14 25 -32 25 -41 0 -8 6 -15 13 -15 8 0 20 -12 28 -27 8 -16
24 -36 37 -46 12 -10 22 -27 22 -38 0 -10 6 -19 14 -19 7 0 21 -16 30 -35 9
-19 20 -35 25 -35 4 0 14 -12 22 -27 8 -15 24 -38 37 -51 12 -14 22 -29 22
-33 0 -4 11 -20 25 -35 14 -15 25 -31 25 -36 0 -5 9 -18 20 -30 11 -12 20 -29
20 -39 0 -9 7 -19 15 -23 8 -3 21 -18 28 -33 6 -15 20 -37 29 -47 10 -11 18
-25 18 -32 0 -7 11 -25 25 -40 14 -15 24 -33 21 -40 -3 -7 2 -15 10 -18 8 -3
20 -18 26 -33 7 -15 20 -39 30 -52 10 -13 18 -30 18 -37 0 -8 9 -23 20 -34 11
-11 20 -29 20 -40 0 -11 4 -20 9 -20 5 0 15 -15 22 -32 7 -18 19 -39 27 -47 7
-7 16 -26 19 -42 3 -16 9 -29 14 -29 7 0 25 -41 20 -48 -1 -1 7 -14 19 -29 11
-14 20 -32 20 -40 0 -8 9 -26 20 -40 11 -14 20 -32 20 -39 0 -7 9 -28 19 -46
11 -17 18 -35 16 -39 -3 -4 2 -12 10 -19 8 -7 15 -18 15 -24 1 -6 9 -29 20
-51 11 -22 19 -48 20 -57 0 -10 4 -18 10 -18 5 0 12 -17 16 -37 4 -21 13 -44
21 -51 7 -7 13 -23 13 -35 0 -12 7 -31 15 -41 8 -11 15 -29 15 -40 0 -12 7
-30 15 -40 8 -11 15 -29 15 -41 0 -12 5 -26 11 -32 5 -5 11 -21 13 -34 2 -13
10 -40 19 -58 8 -19 13 -41 10 -48 -3 -7 -1 -13 5 -13 6 0 13 -15 17 -32 4
-18 13 -48 21 -66 8 -18 12 -37 8 -43 -4 -6 -1 -15 6 -19 7 -4 13 -21 14 -37
2 -16 7 -36 11 -43 5 -7 12 -31 17 -52 8 -36 16 -70 38 -155 23 -93 33 -140
34 -163 0 -14 4 -28 8 -31 5 -3 10 -23 13 -45 2 -21 10 -64 16 -94 6 -30 12
-66 14 -80 1 -14 5 -33 9 -43 5 -9 5 -28 2 -42 -4 -14 -3 -25 2 -25 10 0 45
-297 37 -310 -3 -5 0 -12 6 -15 5 -4 9 -24 8 -44 -2 -20 0 -41 4 -47 3 -6 5
-42 5 -80 -1 -38 1 -74 4 -80 4 -5 6 -62 6 -125 -1 -64 1 -120 4 -125 5 -9 4
-224 -2 -234 -1 -3 -2 -60 -2 -127 1 -68 -2 -123 -6 -123 -6 0 -9 -62 -11
-207 0 -24 -4 -43 -9 -43 -5 0 -7 -13 -4 -30 2 -16 1 -38 -3 -47 -4 -10 -9
-49 -11 -87 -3 -38 -8 -74 -11 -80 -4 -6 -6 -23 -4 -38 1 -15 -1 -33 -6 -40
-4 -7 -8 -26 -9 -43 -4 -56 -14 -116 -21 -128 -4 -7 -6 -22 -4 -35 1 -13 -2
-28 -7 -35 -5 -7 -10 -27 -10 -44 0 -18 -4 -38 -8 -44 -4 -7 -8 -28 -10 -48
-2 -20 -8 -37 -14 -39 -5 -2 -8 -8 -4 -13 5 -9 -42 -213 -54 -233 -3 -5 -6
-23 -8 -39 -1 -16 -7 -33 -14 -37 -7 -4 -10 -12 -6 -18 3 -6 1 -23 -6 -39 -6
-15 -13 -38 -14 -50 -2 -12 -8 -32 -15 -45 -7 -13 -14 -36 -16 -53 -2 -16 -8
-31 -13 -33 -6 -2 -10 -16 -10 -32 0 -16 -7 -35 -15 -44 -9 -8 -14 -19 -13
-23 3 -10 -32 -124 -42 -138 -4 -5 -11 -25 -15 -42 -3 -18 -11 -33 -16 -33 -5
0 -9 -10 -9 -23 0 -13 -7 -32 -15 -43 -8 -10 -15 -26 -15 -34 0 -8 -9 -33 -20
-55 -11 -22 -19 -45 -20 -50 0 -6 -6 -17 -12 -23 -13 -13 -14 -17 -17 -46 0
-8 -7 -21 -14 -28 -8 -7 -17 -25 -20 -40 -4 -15 -14 -33 -22 -41 -8 -8 -12
-17 -9 -20 6 -6 -17 -57 -26 -57 -4 0 -10 -13 -13 -29 -3 -16 -13 -36 -22 -44
-8 -9 -15 -22 -15 -30 0 -8 -9 -26 -21 -41 -11 -14 -18 -26 -14 -26 3 0 -1
-13 -10 -30 -9 -16 -20 -30 -26 -30 -6 0 -7 -5 -4 -10 3 -6 -2 -22 -13 -38
-11 -15 -23 -37 -26 -49 -4 -13 -15 -30 -24 -40 -9 -9 -18 -20 -18 -25 -1 -4
-2 -12 -3 -17 0 -5 -9 -17 -18 -27 -10 -10 -19 -21 -19 -26 -1 -4 -2 -12 -3
-16 0 -5 -9 -17 -19 -28 -10 -10 -24 -34 -31 -51 -7 -18 -17 -33 -22 -33 -5 0
-9 -6 -9 -14 0 -7 -11 -25 -25 -40 -13 -14 -22 -26 -19 -26 3 0 -3 -13 -13
-30 -9 -16 -21 -30 -25 -30 -4 0 -8 -6 -8 -14 0 -7 -11 -25 -24 -39 -14 -15
-27 -36 -31 -47 -3 -11 -15 -25 -26 -31 -11 -5 -17 -14 -14 -18 2 -5 -5 -19
-18 -33 -12 -13 -28 -36 -34 -51 -7 -15 -20 -30 -28 -33 -8 -4 -15 -12 -15
-19 0 -6 -11 -24 -25 -39 -14 -15 -25 -31 -25 -36 0 -5 -11 -17 -25 -28 -14
-11 -25 -24 -25 -29 0 -6 -11 -22 -25 -37 -14 -15 -25 -31 -25 -36 0 -5 -13
-19 -30 -31 -16 -12 -27 -26 -25 -30 3 -4 -8 -19 -25 -32 -16 -14 -30 -30 -30
-36 0 -5 -11 -18 -25 -29 -14 -11 -25 -24 -25 -30 0 -6 -13 -22 -30 -35 -16
-14 -30 -29 -30 -34 0 -4 -18 -25 -40 -47 -22 -21 -40 -43 -40 -47 0 -5 -7 -9
-15 -9 -8 0 -15 -5 -15 -11 0 -16 -333 -349 -342 -343 -4 3 -8 -1 -8 -9 0 -8
-12 -23 -27 -32 -15 -10 -38 -31 -51 -46 -13 -16 -27 -27 -31 -24 -4 2 -18 -9
-30 -25 -12 -17 -28 -30 -36 -30 -8 0 -15 -6 -15 -13 0 -13 -40 -43 -52 -39
-5 1 -8 -3 -8 -9 0 -12 -40 -48 -54 -49 -4 0 -17 -11 -28 -25 -11 -14 -24 -25
-30 -25 -5 0 -19 -11 -30 -25 -11 -14 -25 -25 -31 -25 -7 0 -23 -12 -36 -25
-13 -14 -28 -25 -33 -25 -6 0 -19 -11 -30 -25 -11 -14 -28 -25 -39 -25 -10 0
-19 -6 -19 -14 0 -7 -16 -21 -35 -30 -19 -9 -35 -20 -35 -25 0 -4 -12 -14 -27
-22 -15 -8 -38 -24 -51 -36 -14 -13 -31 -23 -38 -23 -8 0 -14 -4 -14 -8 0 -4
-13 -16 -30 -25 -16 -10 -30 -16 -30 -13 0 3 -11 -6 -25 -19 -13 -14 -31 -25
-39 -25 -8 0 -16 -5 -18 -11 -4 -11 -55 -45 -108 -71 -14 -7 -34 -21 -44 -30
-19 -17 -31 -22 -48 -19 -5 0 -8 -3 -8 -9 0 -5 -13 -16 -30 -25 -16 -9 -30
-12 -30 -8 0 4 -9 -3 -20 -15 -11 -12 -32 -25 -45 -28 -14 -3 -25 -10 -25 -14
0 -4 -15 -14 -32 -21 -18 -7 -39 -19 -47 -27 -7 -7 -26 -16 -42 -19 -16 -3
-29 -9 -29 -14 0 -7 -41 -25 -48 -20 -2 1 -17 -10 -34 -24 -17 -14 -35 -24
-41 -22 -6 2 -19 -5 -29 -15 -10 -10 -29 -18 -43 -18 -14 0 -25 -4 -25 -8 0
-11 -122 -68 -137 -64 -7 2 -13 -1 -13 -6 0 -10 -113 -62 -135 -62 -8 0 -15
-4 -15 -9 0 -10 -48 -25 -67 -22 -7 1 -13 -2 -13 -7 0 -12 -49 -34 -61 -27 -5
4 -9 2 -9 -3 0 -12 -56 -33 -64 -25 -3 3 -12 -2 -21 -11 -15 -14 -36 -21 -58
-17 -4 1 -15 -5 -23 -14 -14 -14 -35 -20 -57 -16 -4 1 -15 -5 -23 -14 -9 -8
-29 -15 -45 -15 -16 0 -29 -4 -29 -10 0 -5 -17 -12 -37 -16 -21 -4 -43 -11
-50 -16 -6 -5 -22 -11 -35 -12 -13 -2 -34 -8 -48 -13 -30 -13 -110 -37 -125
-38 -5 -1 -23 -7 -39 -13 -15 -7 -33 -11 -40 -10 -6 1 -21 -4 -34 -10 -12 -7
-30 -12 -40 -10 -9 1 -23 -2 -31 -6 -8 -5 -32 -13 -53 -18 -21 -4 -57 -13 -80
-19 -24 -6 -54 -12 -68 -14 -14 -1 -38 -8 -54 -14 -16 -7 -36 -9 -44 -6 -9 3
-18 1 -22 -5 -4 -6 -22 -12 -41 -14 -19 -2 -41 -5 -49 -9 -17 -6 -81 -18 -120
-22 -14 -1 -32 -5 -40 -8 -13 -5 -34 -8 -145 -23 -16 -2 -48 -7 -70 -10 -22
-3 -54 -7 -71 -8 -17 -2 -36 -6 -43 -10 -6 -4 -24 -6 -39 -5 -15 1 -35 -2 -45
-6 -10 -4 -31 -5 -47 -2 -16 4 -32 2 -35 -3 -3 -5 -27 -9 -53 -10 -145 -3
-192 -6 -192 -12 0 -4 -35 -7 -78 -6 -43 1 -82 -1 -88 -4 -13 -8 -644 -7 -644
1 0 4 -33 6 -72 4 -40 -2 -80 0 -88 3 -16 6 -141 15 -203 14 -21 0 -43 3 -50
7 -6 4 -28 6 -49 4 -21 -1 -38 2 -38 7 0 6 -17 8 -40 5 -26 -4 -40 -2 -40 5 0
7 -11 9 -30 6 -16 -4 -37 -3 -47 1 -10 4 -31 9 -48 10 -16 2 -43 6 -60 9 -16
2 -56 8 -87 12 -32 4 -58 10 -58 14 0 3 -15 7 -32 8 -39 1 -107 11 -128 19 -8
3 -30 7 -49 9 -19 2 -37 7 -40 11 -3 4 -17 9 -31 9 -23 1 -75 12 -162 34 -21
6 -55 14 -75 20 -21 5 -56 13 -79 18 -22 5 -47 12 -54 17 -7 4 -27 9 -43 11
-16 1 -33 7 -37 14 -4 7 -13 9 -19 6 -6 -4 -25 0 -43 8 -17 9 -40 16 -50 16
-11 0 -29 5 -41 12 -12 6 -32 13 -45 14 -13 2 -29 7 -35 12 -7 5 -29 12 -49
16 -21 4 -38 11 -38 17 0 5 -6 9 -12 7 -21 -4 -68 12 -68 23 0 6 -4 8 -9 5
-10 -6 -120 31 -139 47 -7 6 -25 12 -39 13 -14 2 -33 10 -42 18 -10 9 -20 14
-23 11 -7 -7 -58 16 -58 25 0 4 -11 7 -25 7 -14 0 -35 9 -45 18 -11 10 -20 15
-20 12 0 -3 -13 -1 -30 4 -16 6 -30 15 -30 19 0 4 -16 11 -36 14 -19 4 -38 14
-41 21 -3 8 -9 13 -13 10 -11 -7 -60 15 -60 27 0 4 -11 8 -25 8 -14 0 -34 9
-45 20 -11 11 -23 19 -28 18 -12 -3 -52 13 -52 21 0 5 -13 11 -29 14 -16 3
-36 13 -44 22 -9 8 -22 15 -29 15 -8 0 -24 9 -36 20 -12 11 -27 20 -35 20 -8
0 -25 8 -38 18 -13 10 -39 24 -56 31 -18 8 -33 17 -33 22 0 5 -8 9 -18 9 -10
0 -27 8 -38 18 -10 10 -34 24 -51 31 -18 7 -33 16 -33 20 0 4 -15 13 -34 19
-19 7 -37 20 -40 28 -3 8 -10 13 -15 10 -5 -3 -21 6 -35 19 -15 14 -33 25 -40
25 -7 0 -23 10 -36 22 -13 12 -31 23 -39 25 -9 1 -23 11 -33 22 -9 12 -23 21
-31 21 -8 0 -25 11 -38 25 -13 13 -29 25 -35 25 -5 0 -21 10 -34 23 -14 12
-28 22 -31 22 -4 0 -18 10 -32 21 -13 12 -29 23 -34 25 -14 5 -70 49 -100 77
-13 12 -28 22 -32 22 -4 0 -20 11 -35 25 -15 14 -31 25 -36 25 -5 0 -18 12
-30 27 -12 16 -25 28 -28 28 -14 1 -52 30 -52 40 0 5 -15 17 -33 25 -17 8 -31
21 -29 28 1 6 -4 12 -11 12 -8 0 -33 18 -58 40 -24 22 -47 40 -51 40 -5 0 -8
7 -8 15 0 8 -6 15 -14 15 -8 0 -24 11 -35 26 -11 14 -22 24 -25 22 -8 -5 -56
45 -50 53 3 5 -1 9 -9 9 -7 0 -39 27 -70 60 -30 33 -60 60 -65 60 -10 0 -40
31 -41 43 -1 4 -3 6 -5 5 -8 -5 -46 35 -46 49 0 7 -7 13 -15 13 -8 0 -15 4
-15 9 0 5 -20 28 -45 52 -25 24 -45 50 -45 57 0 7 -4 11 -9 8 -9 -6 -50 33
-50 47 0 5 -11 17 -25 28 -15 11 -26 27 -26 35 0 8 -7 14 -15 14 -8 0 -15 3
-15 8 0 4 -18 27 -40 51 -22 25 -40 50 -40 58 0 7 -5 12 -11 11 -6 -2 -19 12
-28 29 -9 18 -21 33 -26 33 -10 0 -36 34 -35 45 0 3 -13 17 -30 31 -16 14 -30
30 -30 34 0 5 -11 21 -25 36 -13 14 -23 29 -22 33 1 3 -10 18 -23 33 -32 33
-42 47 -66 83 -10 17 -27 39 -36 49 -10 11 -18 25 -18 30 0 6 -12 22 -25 35
-14 13 -25 29 -25 37 0 7 -11 25 -26 39 -14 14 -22 29 -19 35 3 5 -3 14 -14
19 -11 6 -23 21 -26 33 -4 13 -16 33 -27 44 -11 12 -20 28 -22 36 -1 8 -12 25
-24 38 -12 13 -22 30 -22 37 0 7 -9 22 -20 33 -11 11 -20 27 -20 34 0 8 -11
27 -25 42 -14 15 -23 34 -21 41 3 7 1 13 -4 13 -12 0 -41 56 -33 64 4 3 1 6
-5 6 -6 0 -18 14 -27 30 -9 17 -13 30 -10 30 3 0 -5 15 -19 33 -14 19 -23 36
-20 40 3 3 -4 15 -15 26 -12 12 -21 30 -21 41 0 11 -9 29 -20 40 -11 11 -20
29 -20 40 0 11 -4 20 -9 20 -8 0 -23 40 -21 55 1 3 -8 17 -20 32 -11 14 -20
32 -20 39 0 7 -9 28 -19 45 -11 17 -17 38 -14 45 3 8 1 14 -4 14 -13 0 -35 49
-28 61 4 5 2 9 -3 9 -5 0 -15 15 -22 33 -7 17 -19 46 -26 64 -8 17 -14 37 -14
45 0 7 -7 22 -15 32 -8 11 -15 28 -15 38 0 10 -7 30 -16 43 -9 13 -14 30 -11
37 2 7 -2 21 -10 30 -8 9 -16 28 -17 42 0 14 -4 26 -8 26 -4 0 -10 17 -14 38
-4 20 -10 42 -14 47 -8 12 -42 113 -44 135 -2 8 -8 28 -14 43 -7 16 -9 33 -6
39 4 6 2 13 -4 17 -5 3 -26 74 -46 156 -20 83 -41 167 -47 188 -6 22 -8 41 -5
45 3 3 1 11 -5 18 -5 7 -11 27 -13 46 -2 18 -6 40 -9 48 -3 8 -9 38 -13 65 -4
28 -9 59 -11 70 -2 11 -5 36 -7 55 -2 19 -6 42 -9 50 -3 8 -9 42 -13 75 -4 33
-8 67 -9 75 -7 51 -16 141 -20 191 -2 32 -6 62 -9 67 -5 9 -6 32 -9 219 -1 62
-5 113 -9 113 -6 0 -3 385 5 555 4 81 14 207 22 280 8 77 16 140 20 175 11 77
13 97 20 145 4 28 9 57 12 65 3 8 7 29 8 45 8 78 15 119 22 124 5 3 9 20 10
36 2 36 12 94 20 115 3 8 7 30 9 49 2 19 7 37 11 40 5 3 9 18 10 34 0 15 4 35
8 45 4 9 9 30 11 46 2 16 8 34 12 40 5 6 9 24 10 41 1 16 7 34 12 39 6 6 10
19 10 31 0 18 19 82 37 125 3 8 7 20 7 25 3 28 41 135 48 135 4 0 8 12 8 28 0
15 7 37 15 48 8 12 12 24 9 27 -3 3 3 20 12 39 10 18 17 37 16 41 -1 5 4 23
12 40 7 18 19 47 26 65 7 17 15 32 19 32 3 0 7 12 7 26 1 14 9 33 18 43 9 10
14 20 11 23 -8 7 16 58 27 58 4 0 8 10 8 23 0 13 7 32 15 43 8 10 15 26 15 35
0 9 9 28 21 43 11 14 18 26 14 26 -3 0 6 21 20 47 14 27 25 54 25 61 0 7 7 15
15 18 8 4 15 17 15 30 0 13 9 33 20 44 11 11 20 26 20 34 0 7 9 25 20 39 12
15 21 29 20 32 -1 19 2 26 22 45 12 11 19 20 15 20 -4 0 -1 14 8 30 9 17 20
30 25 30 5 0 7 6 4 13 -2 7 7 26 21 41 14 15 23 31 20 35 -2 5 7 21 20 35 14
15 25 34 25 42 0 7 8 22 18 32 10 10 24 32 31 49 7 17 19 34 28 37 8 3 12 10
9 15 -3 5 6 21 19 35 14 15 25 33 25 40 0 7 11 24 24 37 13 13 26 34 30 47 4
12 16 27 27 33 11 5 17 14 14 18 -2 5 7 21 20 35 14 15 25 31 25 35 0 4 11 20
25 35 14 15 25 31 25 35 0 4 11 20 25 35 14 15 25 31 25 36 0 5 11 17 25 28
14 11 25 24 25 29 0 9 39 59 80 102 13 14 24 29 23 33 -2 4 11 18 27 32 17 13
30 29 30 35 0 5 11 18 25 29 14 11 25 25 25 31 0 6 13 20 30 32 16 12 27 25
25 29 -2 3 16 26 41 49 24 24 44 47 44 52 0 5 7 9 15 9 8 0 15 6 15 13 0 14
322 337 336 337 5 0 14 10 19 22 6 12 19 26 29 32 11 6 31 23 44 39 13 15 28
25 33 21 5 -3 9 1 9 9 0 8 11 22 24 31 14 8 37 26 51 40 29 26 71 62 124 107
19 16 39 29 44 29 5 0 18 11 29 25 11 14 24 25 30 25 5 0 19 11 30 25 11 14
28 25 39 25 10 0 19 6 19 13 0 11 36 41 50 42 3 0 15 10 28 23 12 12 26 22 32
22 5 0 20 11 34 25 14 14 32 25 39 25 8 0 17 7 21 15 3 8 18 21 33 28 15 6 38
22 51 34 13 12 27 21 31 20 3 -1 17 8 31 21 13 12 31 22 41 22 9 0 19 7 23 15
3 8 18 21 33 28 15 6 37 20 47 29 11 10 25 18 32 18 7 0 25 11 40 25 15 14 29
23 32 20 3 -2 18 7 34 20 16 14 36 25 44 25 8 0 14 4 14 9 0 5 15 14 33 22 17
7 43 21 56 31 13 10 30 18 37 18 8 0 23 9 34 20 11 11 29 20 40 20 11 0 20 4
20 9 0 5 15 14 33 22 17 7 44 21 59 31 16 11 32 16 38 13 6 -3 13 1 16 9 6 15
41 32 57 28 4 -1 15 5 24 13 8 9 28 19 44 22 16 3 29 9 29 13 0 10 50 31 60
25 4 -3 10 2 13 10 3 7 22 17 41 21 20 3 36 10 36 14 0 4 14 13 30 19 17 5 30
7 30 4 0 -3 8 0 18 8 9 8 44 25 77 38 33 12 72 29 87 37 14 8 33 14 41 14 9 0
28 6 44 14 70 35 189 77 197 69 3 -3 12 2 21 11 15 15 37 21 59 17 5 -1 12 3
16 10 4 6 20 12 36 14 16 1 45 10 64 18 19 8 39 13 44 10 4 -3 12 0 16 7 4 7
20 13 36 14 16 2 39 8 51 14 12 7 32 12 45 12 13 0 28 4 34 10 5 5 23 11 39
12 17 1 33 6 36 10 3 5 21 10 40 11 19 1 37 5 40 10 3 4 21 9 40 10 19 1 37 6
40 10 3 4 21 9 40 11 19 2 41 6 49 9 8 4 29 9 45 11 17 3 61 12 98 20 38 8 72
15 75 14 4 -1 14 1 22 5 20 7 99 19 133 20 15 0 27 3 27 7 0 4 26 10 58 14 31
3 71 8 87 11 17 3 53 7 80 11 28 3 64 7 80 9 76 10 135 16 197 19 37 2 71 7
77 10 5 4 27 6 48 6 55 -2 276 10 281 14 5 5 549 -1 662 -8z"/>
<path d="M7772 19739 c-4 -4 -25 -9 -47 -12 -60 -8 -96 -17 -133 -34 -19 -8
-36 -12 -39 -9 -3 3 -17 -4 -31 -14 -13 -11 -31 -20 -38 -20 -7 0 -25 -11 -40
-25 -15 -14 -31 -25 -36 -25 -5 0 -21 -11 -36 -25 -15 -14 -30 -25 -33 -25
-11 0 -79 -68 -79 -79 0 -5 -11 -18 -25 -29 -14 -11 -25 -24 -25 -29 0 -6 -11
-22 -25 -37 -14 -15 -25 -34 -25 -42 0 -7 -9 -23 -21 -35 -11 -11 -18 -23 -15
-26 3 -3 -3 -22 -13 -42 -11 -20 -24 -56 -30 -81 -5 -25 -13 -58 -17 -75 -4
-16 -9 -46 -11 -65 -6 -71 -5 -7806 2 -7823 4 -9 5 -28 3 -42 -3 -13 -1 -26 4
-27 5 -2 10 -19 12 -38 1 -19 10 -49 19 -66 9 -17 14 -34 10 -37 -3 -3 2 -13
11 -22 9 -9 19 -28 23 -43 3 -14 15 -35 25 -46 10 -11 18 -26 18 -34 0 -8 11
-23 25 -34 14 -11 25 -25 25 -32 0 -7 14 -22 30 -34 17 -13 30 -29 30 -38 0
-8 4 -13 9 -10 5 4 21 -7 34 -24 14 -16 30 -30 35 -30 5 0 21 -11 36 -25 15
-14 33 -25 40 -25 7 0 21 -8 32 -19 12 -10 35 -22 52 -26 18 -3 34 -11 37 -16
4 -5 14 -9 23 -9 9 0 28 -6 42 -13 14 -7 38 -14 55 -15 16 -1 33 -6 38 -11 5
-5 26 -6 48 -4 21 3 39 2 39 -3 0 -11 7507 -9 7533 1 9 4 28 4 41 1 14 -3 28
-2 31 4 3 5 21 10 39 10 18 0 47 7 64 16 18 8 36 13 41 10 5 -3 14 1 21 9 7 8
18 15 24 15 6 0 32 11 59 25 26 14 47 23 47 21 0 -3 11 6 25 19 13 14 29 25
35 25 6 0 23 14 37 30 13 17 32 30 41 30 8 0 12 3 8 7 -4 4 6 21 23 38 66 67
85 91 87 104 2 7 13 24 25 37 12 13 19 24 15 24 -3 0 1 15 11 33 36 67 73 187
73 237 0 17 3 30 8 30 9 0 7 7758 -3 7830 -4 30 -9 64 -10 75 -1 11 -5 27 -8
35 -11 27 -38 104 -44 125 -3 11 -14 32 -25 47 -10 14 -18 33 -18 42 0 9 -5
16 -10 16 -6 0 -16 12 -23 28 -6 15 -24 38 -39 50 -16 13 -28 28 -28 32 0 11
-63 75 -72 72 -4 -1 -18 12 -32 28 -13 17 -31 30 -38 30 -8 0 -23 8 -34 18
-10 10 -34 24 -51 31 -18 7 -33 17 -33 21 0 4 -18 10 -40 14 -22 3 -40 10 -40
15 0 4 -14 8 -31 9 -18 0 -37 6 -42 11 -6 6 -27 11 -47 11 -20 0 -40 3 -43 6
-9 9 -7606 11 -7615 3z m7164 -1063 l241 -241 0 -3335 0 -3335 -241 -241 -241
-242 -3158 0 -3158 0 -30 25 c-16 14 -27 28 -24 31 2 3 -5 10 -18 16 -12 6
-26 21 -31 32 -5 11 -19 25 -30 30 -12 5 -25 18 -30 30 -5 11 -19 25 -30 30
-12 5 -25 18 -30 30 -5 11 -19 25 -30 30 -12 5 -25 18 -30 30 -5 11 -19 25
-30 30 -11 5 -26 20 -33 34 -7 14 -13 21 -13 16 0 -5 -11 1 -25 14 -14 13 -25
30 -25 38 0 9 -3 12 -7 9 -9 -9 -53 33 -53 50 0 7 -4 13 -10 13 -14 0 -13 47
1 56 8 4 8 9 0 17 -14 14 -14 54 0 63 8 4 8 9 0 17 -6 6 -11 23 -11 38 0 15 5
31 11 35 8 4 8 9 0 17 -6 6 -11 21 -11 33 0 13 5 26 11 30 8 4 8 9 0 17 -6 6
-11 21 -11 33 0 13 5 26 11 30 8 4 8 9 0 17 -14 14 -14 64 0 73 8 4 8 9 0 17
-6 6 -11 21 -11 33 0 13 5 26 11 30 8 4 8 9 0 17 -6 6 -11 21 -11 33 0 13 5
26 11 30 8 4 8 9 0 17 -14 14 -14 64 0 73 8 4 8 9 0 17 -6 6 -11 21 -11 33 0
13 5 26 11 30 8 4 8 9 0 17 -14 14 -14 54 0 63 8 4 8 9 0 17 -14 14 -14 64 0
73 8 4 8 9 0 17 -14 14 -14 54 0 63 8 4 8 9 0 17 -14 14 -14 54 0 63 8 4 8 9
0 17 -6 6 -11 23 -11 38 0 15 5 31 11 35 8 4 8 9 0 17 -14 14 -14 54 0 63 8 4
8 9 0 17 -14 14 -14 54 0 63 8 4 8 9 0 17 -6 6 -11 23 -11 38 0 15 5 31 11 35
8 4 8 9 0 17 -14 14 -14 54 0 63 8 4 8 9 0 17 -14 14 -14 54 0 63 8 4 8 9 0
17 -14 14 -14 64 0 73 8 4 8 9 0 17 -14 14 -14 54 0 63 8 4 8 9 0 17 -14 14
-14 54 0 63 8 4 8 9 0 17 -6 6 -11 23 -11 38 0 15 5 31 11 35 8 4 8 9 0 17 -6
6 -11 21 -11 33 0 13 5 26 11 30 8 4 8 9 0 17 -6 6 -11 21 -11 33 0 13 5 26
11 30 8 4 8 9 0 17 -6 6 -11 23 -11 38 0 15 5 31 11 35 8 4 8 9 0 17 -6 6 -11
21 -11 33 0 13 5 26 11 30 8 4 8 9 0 17 -6 6 -11 21 -11 33 0 13 5 26 11 30 8
4 8 9 0 17 -6 6 -11 23 -11 38 0 15 5 31 11 35 8 4 8 9 0 17 -6 6 -11 21 -11
33 0 13 5 26 11 30 8 4 8 9 0 17 -6 6 -11 21 -11 33 0 13 5 26 11 30 8 4 8 9
0 17 -6 6 -11 23 -11 38 0 15 5 31 11 35 8 4 8 9 0 17 -6 6 -11 21 -11 33 0
13 5 26 11 30 8 4 8 9 0 17 -6 6 -11 21 -11 33 0 13 5 26 11 30 8 4 8 9 0 17
-6 6 -11 23 -11 38 0 15 5 31 11 35 8 4 8 9 0 17 -6 6 -11 21 -11 33 0 13 5
26 11 30 8 4 8 9 0 17 -6 6 -11 21 -11 33 0 13 5 26 11 30 8 4 8 9 0 17 -6 6
-11 23 -11 38 0 15 5 31 11 35 8 4 8 9 0 17 -6 6 -11 21 -11 33 0 13 5 26 11
30 8 4 8 9 0 17 -6 6 -11 21 -11 33 0 13 5 26 11 30 8 4 8 9 0 17 -6 6 -11 23
-11 38 0 15 5 31 11 35 8 4 8 9 0 17 -6 6 -11 21 -11 33 0 13 5 26 11 30 8 4
8 9 0 17 -6 6 -11 21 -11 33 0 13 5 26 11 30 8 4 8 9 0 17 -6 6 -11 23 -11 38
0 15 5 31 11 35 8 4 8 9 0 17 -6 6 -11 21 -11 33 0 13 5 26 11 30 8 4 8 9 0
17 -6 6 -11 21 -11 33 0 13 5 26 11 30 8 4 8 9 0 17 -14 14 -14 64 0 73 8 4 8
9 0 17 -6 6 -11 21 -11 33 0 13 5 26 11 30 8 4 8 9 0 17 -6 6 -11 21 -11 33 0
13 5 26 11 30 8 4 8 9 0 17 -6 6 -11 23 -11 38 0 15 5 31 11 35 8 4 8 9 0 17
-6 6 -11 21 -11 33 0 13 5 26 11 30 8 4 8 9 0 17 -6 6 -11 21 -11 33 0 13 5
26 11 30 8 4 8 9 0 17 -6 6 -11 23 -11 38 0 15 5 31 11 35 8 4 8 9 0 17 -6 6
-11 21 -11 33 0 13 5 26 11 30 8 4 8 9 0 17 -6 6 -11 21 -11 33 0 13 5 26 11
30 8 4 8 9 0 17 -6 6 -11 23 -11 38 0 15 5 31 11 35 8 4 8 9 0 17 -6 6 -11 21
-11 33 0 13 5 26 11 30 8 4 8 9 0 17 -6 6 -11 21 -11 33 0 13 5 26 11 30 8 4
8 9 0 17 -6 6 -11 23 -11 38 0 15 5 31 11 35 8 4 8 9 0 17 -6 6 -11 21 -11 33
0 13 5 26 11 30 8 4 8 9 0 17 -6 6 -11 21 -11 33 0 13 5 26 11 30 8 4 8 9 0
17 -6 6 -11 23 -11 38 0 15 5 31 11 35 8 4 8 9 0 17 -6 6 -11 21 -11 33 0 13
5 26 11 30 8 4 8 9 0 17 -6 6 -11 21 -11 33 0 13 5 26 11 30 8 4 8 9 0 17 -6
6 -11 23 -11 38 0 15 5 31 11 35 8 4 8 9 0 17 -14 14 -14 54 0 63 8 4 8 9 0
17 -6 6 -11 21 -11 33 0 13 5 26 11 30 8 4 8 9 0 17 -6 6 -11 23 -11 38 0 15
5 31 11 35 8 4 8 9 0 17 -6 6 -11 21 -11 33 0 13 5 26 11 30 8 4 8 9 0 17 -6
6 -11 21 -11 33 0 13 5 26 11 30 8 4 8 9 0 17 -6 6 -11 23 -11 38 0 15 5 31
11 35 8 4 8 9 0 17 -6 6 -11 21 -11 33 0 13 5 26 11 30 8 4 8 9 0 17 -6 6 -11
21 -11 33 0 13 5 26 11 30 8 4 8 9 0 17 -6 6 -11 23 -11 38 0 15 5 31 11 35 8
4 8 9 0 17 -6 6 -11 21 -11 33 0 13 5 26 11 30 8 4 8 9 0 17 -14 14 -14 54 0
63 8 4 8 9 0 17 -6 6 -11 23 -11 38 0 15 5 31 11 35 8 4 8 9 0 17 -6 6 -11 20
-11 32 0 12 5 26 11 32 8 8 8 13 0 17 -12 8 -15 49 -4 60 4 4 8 17 8 29 0 13
9 26 21 31 11 5 25 19 30 30 5 12 18 25 30 30 11 5 25 19 30 30 5 12 18 25 30
30 11 5 25 19 30 30 5 12 18 25 30 30 11 5 25 19 30 30 5 12 18 25 30 30 11 5
25 19 30 30 5 12 18 25 30 30 11 5 25 19 30 30 5 12 19 25 32 31 12 5 22 15
22 21 0 13 39 50 49 47 3 -2 7 2 7 7 1 6 2 12 3 14 0 2 1424 3 3163 3 l3163 0
241 -241z"/>
<path d="M11720 18101 c-34 -6 -35 -7 -32 -48 2 -24 0 -43 -5 -43 -5 0 -8 -33
-6 -72 2 -40 0 -80 -3 -88 -4 -8 -6 -49 -6 -90 1 -41 -4 -80 -10 -87 -8 -10
-5 -13 14 -13 14 0 27 -3 31 -6 6 -6 122 -14 205 -13 23 0 42 -5 42 -10 0 -6
12 -8 30 -5 16 4 37 3 47 -1 10 -4 29 -9 43 -10 72 -8 126 -18 130 -24 3 -4
16 -7 30 -7 14 -1 45 -6 70 -12 25 -6 66 -16 93 -22 26 -7 47 -16 47 -22 0 -6
7 -7 16 -4 9 3 30 0 47 -8 18 -8 47 -17 65 -21 17 -4 32 -11 32 -17 0 -6 6 -8
14 -5 7 3 27 -3 43 -13 16 -10 44 -21 61 -25 18 -3 32 -10 32 -15 0 -4 13 -10
29 -13 16 -3 36 -13 44 -22 9 -8 23 -15 31 -15 9 0 25 -9 36 -20 11 -11 27
-20 35 -20 8 0 24 -9 35 -20 11 -11 26 -20 33 -20 7 0 24 -10 37 -22 14 -13
28 -22 31 -21 4 1 19 -9 33 -22 15 -14 30 -25 34 -25 13 -1 52 -38 52 -49 0
-6 3 -10 8 -9 12 4 52 -26 52 -39 0 -7 5 -13 11 -13 13 0 169 -151 169 -164 0
-4 11 -17 25 -28 14 -11 25 -25 25 -33 0 -7 7 -15 15 -19 8 -3 21 -18 28 -33
6 -15 22 -37 35 -50 12 -12 22 -27 22 -32 0 -5 11 -22 25 -37 14 -15 23 -29
20 -32 -3 -3 4 -15 16 -28 11 -12 21 -28 23 -36 1 -8 12 -27 24 -43 12 -16 21
-33 19 -39 -2 -5 5 -18 15 -28 10 -10 18 -29 18 -43 0 -14 4 -25 8 -25 12 0
33 -50 27 -61 -4 -5 -2 -9 3 -9 5 0 15 -15 22 -32 7 -18 19 -47 26 -65 8 -17
14 -35 13 -40 -1 -4 5 -24 14 -43 8 -19 13 -39 10 -44 -3 -4 0 -12 7 -16 7 -4
13 -21 14 -37 2 -16 7 -36 11 -43 5 -7 12 -31 17 -52 4 -21 13 -57 19 -80 6
-24 12 -54 14 -68 1 -14 6 -33 10 -43 4 -10 8 -30 9 -45 1 -15 5 -33 9 -40 5
-7 7 -25 6 -40 -1 -15 1 -34 4 -42 7 -19 20 -108 19 -136 0 -19 4 -20 67 -12
36 5 76 6 89 3 12 -3 22 -1 22 5 0 6 19 11 43 11 23 -1 62 1 87 4 25 3 63 7
85 9 22 2 43 4 47 5 7 1 4 34 -8 121 -4 25 -7 59 -8 75 -1 17 -5 36 -9 43 -5
7 -7 22 -6 35 1 12 -1 30 -6 40 -4 10 -8 31 -9 47 -1 16 -5 32 -9 36 -4 4 -7
19 -7 32 0 14 -4 39 -10 56 -13 42 -41 154 -47 191 -3 17 -9 35 -14 41 -5 6
-10 24 -12 40 -2 16 -9 39 -15 51 -7 12 -12 31 -12 42 0 11 -4 22 -9 26 -5 3
-12 19 -16 36 -4 17 -13 42 -21 57 -8 15 -14 34 -14 42 0 8 -7 24 -15 34 -8
11 -15 30 -15 43 0 13 -4 23 -8 23 -11 0 -35 51 -28 57 3 3 -1 12 -9 20 -8 8
-18 26 -21 40 -4 14 -15 34 -25 44 -11 11 -19 28 -19 39 0 11 -4 20 -9 20 -5
0 -15 15 -22 33 -7 17 -21 41 -31 51 -10 11 -18 23 -18 28 0 14 -5 22 -27 47
-13 13 -23 28 -23 32 0 4 -11 20 -25 35 -14 15 -25 31 -25 35 0 4 -11 20 -25
35 -14 15 -25 31 -25 37 0 5 -11 18 -25 29 -14 11 -25 26 -25 34 0 8 -7 14
-15 14 -8 0 -15 4 -15 9 0 5 -20 28 -44 52 -25 23 -43 46 -40 51 3 4 -1 8 -8
8 -7 0 -33 20 -57 45 -24 25 -47 45 -52 45 -5 0 -9 7 -9 15 0 8 -3 14 -7 13
-13 -4 -53 26 -53 39 0 7 -7 13 -15 13 -9 0 -27 11 -41 25 -14 14 -29 25 -35
25 -5 0 -20 10 -32 23 -13 12 -34 28 -47 35 -55 28 -104 60 -108 71 -2 6 -8 9
-13 5 -5 -3 -24 5 -42 18 -17 13 -34 23 -37 23 -18 2 -50 18 -50 24 0 5 -13
11 -29 14 -16 3 -36 13 -45 22 -9 9 -20 14 -24 11 -5 -3 -22 3 -39 13 -16 10
-44 22 -61 26 -18 3 -32 10 -32 15 0 4 -18 10 -40 14 -22 3 -40 11 -40 16 0 6
-12 10 -26 10 -14 0 -35 5 -47 12 -12 6 -35 12 -51 14 -16 1 -32 7 -36 14 -4
7 -12 10 -18 6 -6 -3 -23 -1 -39 6 -15 6 -44 13 -63 15 -19 2 -37 7 -40 11 -3
4 -17 8 -33 9 -15 0 -35 4 -45 8 -9 4 -28 9 -42 10 -55 6 -116 16 -130 22 -8
3 -29 5 -46 4 -18 -1 -35 2 -38 7 -3 5 -17 7 -31 5 -13 -3 -33 -2 -42 2 -21 7
-150 18 -207 16 -21 -1 -43 2 -50 7 -6 4 -27 6 -46 3z"/>
<path d="M8817 17943 c-12 -7 -29 -12 -37 -13 -9 0 -24 -13 -33 -30 -10 -16
-22 -30 -26 -30 -4 0 -9 -17 -10 -37 -4 -58 -3 -516 1 -534 5 -21 64 -89 77
-89 5 0 22 -5 38 -11 28 -11 1941 -17 1960 -7 4 3 21 8 36 12 25 6 111 76 94
76 -4 0 -2 12 4 28 16 38 15 552 0 552 -3 0 -17 16 -30 35 -13 19 -27 35 -32
35 -4 0 -20 5 -36 11 -42 17 -1976 19 -2006 2z"/>
<path d="M11663 17322 c-13 -2 -23 -9 -24 -15 -2 -22 -7 -171 -9 -247 -1 -41
-5 -79 -9 -85 -4 -5 -6 -28 -4 -50 l5 -40 111 -2 c62 -1 136 -2 165 -3 28 0
52 -4 52 -8 0 -5 17 -9 38 -9 54 -2 70 -4 142 -20 36 -8 83 -18 105 -23 22 -4
41 -13 43 -18 2 -6 10 -8 17 -6 8 3 29 -1 46 -10 18 -9 38 -16 44 -16 7 0 24
-9 37 -20 14 -10 28 -17 30 -14 7 7 58 -17 58 -28 0 -4 8 -8 18 -8 10 0 27 -8
38 -18 10 -9 32 -23 47 -29 15 -7 30 -20 33 -28 4 -8 13 -15 21 -15 7 0 24
-10 37 -22 13 -13 32 -28 42 -34 11 -6 25 -22 31 -35 7 -13 13 -20 13 -15 0 5
11 -1 25 -14 14 -13 25 -28 25 -33 0 -5 11 -18 25 -29 14 -11 25 -25 25 -33 0
-7 7 -15 15 -19 8 -3 21 -18 28 -33 6 -15 22 -38 35 -52 12 -13 20 -26 17 -29
-2 -3 7 -18 20 -34 14 -16 23 -34 20 -38 -3 -5 3 -18 15 -30 11 -11 20 -29 20
-41 0 -11 7 -27 15 -35 8 -9 15 -25 15 -37 0 -12 7 -31 15 -41 8 -11 15 -27
15 -36 0 -9 7 -31 16 -48 8 -18 12 -37 8 -43 -3 -6 -1 -14 5 -18 6 -4 13 -23
15 -42 2 -19 6 -41 10 -49 7 -18 17 -72 20 -116 2 -17 6 -36 10 -43 4 -6 6
-24 5 -39 -1 -15 2 -35 6 -45 4 -9 5 -31 3 -47 -3 -17 -1 -30 4 -30 4 0 8 -16
8 -36 0 -32 2 -35 23 -28 12 4 36 9 52 10 17 1 66 5 110 10 44 5 99 9 123 8
23 0 42 4 42 9 0 5 18 7 40 6 21 -2 42 0 46 4 4 4 2 7 -5 7 -8 0 -11 15 -10
43 1 39 -4 100 -17 192 -3 22 -7 51 -8 65 -2 14 -5 32 -9 40 -5 14 -20 97 -23
130 0 8 -6 28 -13 44 -6 15 -11 33 -10 40 1 6 -3 24 -10 40 -6 16 -10 34 -8
41 3 6 -1 19 -9 30 -8 10 -14 31 -14 47 0 15 -4 28 -9 28 -5 0 -13 15 -16 33
-4 17 -14 41 -21 52 -8 11 -14 30 -14 42 0 13 -4 23 -9 23 -9 0 -21 26 -25 54
-1 6 -11 25 -22 41 -12 17 -19 36 -17 43 3 6 0 12 -6 12 -6 0 -17 14 -26 30
-9 17 -13 30 -11 30 3 0 -6 11 -19 25 -14 13 -25 29 -25 34 0 5 -11 22 -25 37
-14 15 -25 31 -25 37 0 5 -11 18 -25 29 -14 11 -25 24 -25 29 0 6 -13 22 -30
36 -16 13 -30 31 -30 39 0 9 -4 13 -8 10 -5 -3 -34 22 -66 54 -31 33 -61 60
-65 60 -4 0 -20 11 -35 25 -15 14 -30 25 -35 25 -4 0 -18 10 -31 23 -14 12
-28 21 -31 20 -4 -1 -18 8 -32 21 -14 13 -37 26 -50 30 -14 3 -32 13 -41 21
-8 8 -21 15 -29 15 -8 0 -26 9 -40 20 -15 12 -29 21 -32 20 -24 -2 -36 2 -49
15 -8 9 -19 15 -23 14 -16 -4 -63 13 -63 23 0 5 -6 8 -12 5 -7 -2 -26 1 -43 8
-16 6 -47 15 -67 19 -21 4 -38 10 -38 14 0 4 -12 7 -27 8 -16 1 -50 6 -78 13
-27 6 -67 14 -88 16 -21 3 -44 8 -50 12 -7 4 -24 6 -39 4 -15 -1 -32 0 -38 4
-17 11 -325 25 -377 17z"/>
<path d="M8817 16953 c-12 -7 -29 -12 -37 -13 -9 0 -24 -13 -33 -30 -10 -16
-22 -30 -26 -30 -4 0 -9 -17 -10 -37 -4 -58 -3 -516 1 -534 5 -21 64 -89 77
-89 5 0 22 -5 38 -11 31 -12 1953 -19 1953 -8 0 4 16 10 35 13 28 6 123 76
102 76 -4 0 -2 12 4 28 7 17 11 115 10 272 -2 295 1 269 -28 300 -12 13 -23
29 -23 35 0 34 -61 36 -1058 38 -756 2 -988 -1 -1005 -10z"/>
<path d="M11725 16562 c-1 -2 -29 -5 -60 -7 -32 -3 -60 -7 -63 -10 -6 -6 -10
-65 -12 -177 -1 -43 -5 -80 -9 -82 -8 -5 -5 -125 3 -134 4 -3 46 -5 93 -5 48
1 92 -1 97 -5 6 -3 27 -5 48 -3 23 1 38 -2 38 -9 0 -7 8 -9 19 -5 10 3 31 0
47 -6 16 -6 42 -13 59 -14 16 -2 31 -8 33 -14 2 -6 14 -11 27 -11 14 0 33 -10
45 -22 11 -12 20 -19 20 -15 0 4 14 1 30 -8 17 -9 30 -20 30 -25 0 -6 6 -10
14 -10 8 0 23 -11 34 -25 11 -14 25 -25 31 -25 6 0 19 -12 28 -27 10 -15 28
-38 41 -52 12 -13 22 -30 22 -37 0 -7 4 -14 8 -16 11 -4 62 -105 62 -122 0 -7
7 -27 16 -44 8 -18 12 -37 8 -43 -3 -6 -2 -14 4 -18 12 -7 27 -96 37 -225 4
-62 11 -78 24 -58 4 7 25 13 47 12 21 0 57 2 79 5 65 7 125 13 205 20 41 4 77
9 79 11 2 2 -1 9 -7 16 -6 8 -10 47 -8 91 1 43 -2 81 -7 84 -5 3 -7 21 -4 39
3 19 1 36 -4 40 -6 3 -9 20 -8 38 2 17 0 36 -4 43 -4 6 -8 24 -9 40 -1 15 -5
33 -10 39 -4 6 -10 24 -12 40 -2 16 -8 42 -15 57 -6 16 -11 34 -11 42 0 8 -4
16 -9 20 -5 3 -13 20 -16 37 -4 18 -14 38 -21 46 -8 7 -17 25 -21 40 -3 14
-15 35 -25 46 -10 11 -18 26 -18 34 0 8 -11 23 -25 34 -14 11 -25 23 -25 27 0
12 -131 141 -142 141 -5 0 -20 11 -33 25 -14 13 -25 22 -25 19 0 -2 -13 2 -30
11 -16 9 -30 19 -30 24 0 5 -16 12 -35 15 -19 4 -35 11 -35 16 0 6 -8 10 -17
10 -10 0 -31 7 -47 15 -15 8 -37 15 -48 15 -11 0 -29 5 -41 12 -12 6 -33 13
-47 14 -14 2 -56 8 -95 14 -38 5 -99 12 -135 14 -36 3 -87 6 -113 8 -27 2 -50
2 -52 0z"/>
<path d="M8804 15991 c-21 -8 -43 -21 -48 -29 -4 -8 -16 -22 -25 -31 -10 -10
-18 -24 -19 -32 -4 -29 -3 -535 0 -550 8 -35 64 -85 110 -98 36 -10 257 -13
1002 -15 526 0 956 2 956 5 0 4 15 10 34 13 27 5 122 76 102 76 -3 0 -1 12 5
28 7 17 11 115 10 272 -2 295 1 269 -28 300 -12 13 -23 29 -23 35 0 34 -61 36
-1056 38 -835 2 -987 0 -1020 -12z"/>
<path d="M11816 15783 c-4 -4 -15 -8 -24 -8 -38 -2 -102 -18 -102 -26 0 -4
-16 -13 -35 -20 -19 -7 -35 -19 -35 -25 0 -7 -10 -21 -22 -31 -39 -31 -77
-167 -57 -205 5 -9 9 -28 9 -42 0 -14 4 -26 8 -26 10 0 37 -50 34 -62 -1 -5 4
-8 11 -8 8 0 22 -9 32 -20 27 -30 105 -63 141 -61 18 1 35 -3 39 -9 5 -8 10
-8 20 0 7 6 29 11 49 12 20 1 36 4 36 8 0 4 14 13 30 20 39 16 94 71 110 110
7 16 16 30 20 30 6 0 12 44 12 90 0 46 -6 90 -12 90 -4 0 -13 14 -20 30 -7 17
-28 46 -46 64 -18 18 -47 39 -64 46 -16 7 -30 16 -30 20 0 4 -16 7 -36 8 -20
1 -42 6 -49 12 -6 5 -15 7 -19 3z"/>
<path d="M13235 14839 c-131 -19 -237 -74 -350 -181 -188 -177 -317 -438 -388
-783 -43 -208 -52 -318 -52 -655 1 -343 16 -494 70 -719 106 -435 328 -756
618 -892 110 -51 207 -71 352 -72 188 -2 310 32 451 124 233 152 384 411 445
758 10 63 16 118 12 122 -15 13 -562 171 -572 164 -6 -3 -11 -29 -11 -57 0
-70 -27 -248 -51 -336 -45 -169 -112 -242 -222 -242 -119 1 -190 86 -222 264
-34 199 -51 804 -36 1281 15 457 30 559 94 631 37 43 81 64 132 64 145 0 241
-167 278 -485 l12 -110 253 -3 252 -2 0 545 0 545 -255 0 -255 0 0 -110 0
-110 -87 88 c-101 102 -194 155 -303 172 -73 11 -81 11 -165 -1z"/>
<path d="M10903 14806 c-125 -31 -262 -124 -340 -229 -236 -318 -210 -797 63
-1162 40 -53 184 -206 348 -370 155 -154 303 -309 330 -345 101 -135 146 -278
127 -409 -6 -41 -20 -92 -30 -115 -51 -110 -164 -160 -283 -124 -49 14 -123
78 -148 127 -28 57 -51 183 -57 324 l-6 127 -239 0 -238 0 0 -525 0 -525 240
0 240 0 0 100 0 100 72 -60 c82 -69 183 -122 278 -146 87 -22 271 -15 350 14
260 92 436 313 501 627 17 81 17 312 0 405 -58 325 -216 552 -657 945 -284
255 -343 333 -366 483 -11 77 6 172 39 216 87 116 285 103 370 -23 43 -63 72
-202 73 -343 l0 -68 240 0 240 0 0 485 0 485 -240 0 -240 0 0 -100 0 -101 -62
53 c-154 130 -229 159 -418 164 -89 2 -153 -1 -187 -10z"/>
<path d="M8750 14560 l0 -240 155 0 155 0 0 -1130 0 -1130 -155 0 -155 0 0
-240 0 -240 703 2 702 3 3 237 2 238 -167 2 -168 3 -3 1128 -2 1127 170 0 170
0 0 240 0 240 -705 0 -705 0 0 -240z"/>
<path d="M9545 3520 l-75 -150 72 0 73 1 155 149 155 149 -152 1 -153 0 -75
-150z"/>
<path d="M4522 3294 c-122 -61 -192 -215 -212 -469 -10 -118 -1 -271 21 -362
19 -79 74 -188 119 -237 62 -67 134 -99 235 -104 177 -9 296 66 355 226 26 70
36 121 45 240 l7 92 -181 0 -181 0 0 -85 0 -85 41 0 42 0 -6 -58 c-6 -74 -28
-116 -67 -132 -47 -20 -85 1 -107 59 -16 41 -18 82 -18 356 0 294 1 312 20
345 28 47 75 61 113 34 40 -29 72 -99 72 -156 l0 -48 95 0 95 0 0 195 0 195
-95 0 -95 0 0 -41 0 -41 -25 30 c-62 74 -178 93 -273 46z"/>
<path d="M13923 3295 c-54 -27 -95 -77 -119 -142 -29 -82 -11 -231 39 -313 12
-19 80 -96 152 -170 72 -74 138 -151 148 -172 10 -20 17 -60 17 -91 0 -73 -29
-111 -84 -111 -66 0 -105 63 -106 172 l0 42 -85 0 -85 0 0 -185 0 -185 85 0
c84 0 85 0 85 25 0 14 2 25 5 25 2 0 25 -15 51 -32 42 -30 52 -33 122 -33 96
0 140 20 193 88 53 67 72 137 67 248 -4 76 -9 97 -41 161 -31 64 -56 94 -176
210 -117 114 -141 142 -151 178 -22 83 25 153 91 134 47 -14 72 -53 77 -124
l4 -60 89 0 89 0 0 170 0 170 -90 0 -90 0 0 -31 0 -31 -32 28 c-73 61 -168 72
-255 29z"/>
<path d="M15243 3295 c-54 -27 -95 -77 -119 -142 -29 -82 -11 -231 39 -313 12
-19 80 -96 152 -170 72 -74 138 -151 148 -172 10 -20 17 -60 17 -91 0 -73 -29
-111 -84 -111 -66 0 -105 63 -106 172 l0 42 -85 0 -85 0 0 -185 0 -185 85 0
c84 0 85 0 85 25 0 14 2 25 5 25 2 0 25 -15 51 -32 42 -30 52 -33 122 -33 96
0 140 20 193 88 53 67 72 137 67 248 -4 76 -9 97 -41 161 -31 64 -56 94 -176
210 -117 114 -141 142 -151 178 -22 83 25 153 91 134 47 -14 72 -53 77 -124
l4 -60 89 0 89 0 0 170 0 170 -90 0 -90 0 0 -31 0 -31 -32 28 c-73 61 -168 72
-255 29z"/>
<path d="M19885 3302 c-90 -43 -139 -133 -140 -257 0 -141 36 -207 216 -389
121 -121 147 -160 156 -226 16 -119 -95 -185 -161 -96 -15 20 -22 46 -24 102
l-4 74 -89 0 -89 0 0 -185 0 -185 90 0 c89 0 90 0 90 25 l0 24 51 -31 c103
-64 222 -48 303 43 99 111 111 280 30 441 -18 37 -68 94 -164 188 -76 74 -143
145 -149 157 -16 31 -14 105 4 130 31 45 113 36 139 -16 8 -14 17 -52 21 -84
l7 -57 84 0 84 0 0 170 0 170 -85 0 -85 0 0 -31 0 -31 -52 39 c-47 34 -59 38
-123 41 -53 2 -80 -2 -110 -16z"/>
<path d="M2770 3215 l0 -84 58 -3 57 -3 0 -405 0 -405 -57 -3 -58 -3 0 -84 0
-85 255 0 255 0 0 85 0 84 -57 3 -58 3 0 405 0 405 58 3 57 3 0 84 0 85 -255
0 -255 0 0 -85z"/>
<path d="M3380 3215 l0 -85 35 0 35 0 0 -410 0 -410 -35 0 -35 0 0 -85 0 -85
155 0 155 0 0 85 0 85 -30 0 c-17 0 -32 6 -35 13 -6 20 -11 617 -5 617 3 0 28
-69 54 -154 27 -85 90 -264 141 -398 l93 -243 111 -3 111 -3 0 496 0 495 30 0
30 0 0 85 0 85 -155 0 -155 0 0 -85 0 -85 35 0 35 0 0 -87 c0 -49 3 -167 6
-263 5 -117 3 -172 -4 -165 -5 6 -24 60 -41 120 -39 139 -107 341 -157 468
l-38 97 -168 0 -168 0 0 -85z"/>
<path d="M5170 3215 l0 -85 50 0 50 0 0 -410 0 -410 -50 0 -50 0 0 -85 0 -85
395 0 395 0 0 185 0 185 -105 0 -105 0 0 -100 0 -100 -100 0 -100 0 0 170 0
170 75 0 75 0 0 85 0 85 -75 0 -75 0 0 155 0 155 100 0 100 0 0 -95 0 -95 105
0 105 0 0 180 0 180 -395 0 -395 0 0 -85z"/>
<path d="M6070 3215 l0 -85 35 0 35 0 0 -410 0 -410 -35 0 -35 0 0 -85 0 -85
155 0 155 0 0 85 0 85 -30 0 c-17 0 -32 6 -35 13 -6 20 -11 617 -5 617 3 0 28
-69 54 -154 27 -85 90 -264 141 -398 l93 -243 111 -3 111 -3 0 496 0 495 30 0
30 0 0 85 0 85 -155 0 -155 0 0 -85 0 -85 35 0 35 0 0 -87 c0 -49 3 -167 6
-263 5 -117 3 -172 -4 -165 -5 6 -24 60 -41 120 -39 139 -107 341 -157 468
l-38 97 -168 0 -168 0 0 -85z"/>
<path d="M6970 3215 l0 -84 58 -3 57 -3 0 -405 0 -405 -57 -3 -58 -3 0 -84 0
-85 255 0 255 0 0 85 0 84 -57 3 -58 3 0 405 0 405 58 3 57 3 0 84 0 85 -255
0 -255 0 0 -85z"/>
<path d="M7560 3215 l0 -85 50 0 50 0 0 -410 0 -410 -50 0 -50 0 0 -85 0 -85
395 0 395 0 0 185 0 185 -105 0 -105 0 0 -100 0 -100 -100 0 -100 0 0 170 0
170 80 0 80 0 0 85 0 85 -80 0 -80 0 0 155 0 155 100 0 100 0 0 -95 0 -95 105
0 105 0 0 180 0 180 -395 0 -395 0 0 -85z"/>
<path d="M8470 3216 l0 -86 35 0 35 0 0 -410 0 -410 -35 0 -35 0 0 -85 0 -85
210 0 210 0 0 85 0 85 -35 0 -35 0 0 170 0 170 45 0 c52 0 41 31 111 -292 l47
-218 128 0 129 0 0 85 c0 84 0 85 -25 85 -28 0 -25 -9 -81 247 l-38 172 27 21
c15 12 39 43 55 68 25 43 27 56 27 147 0 89 -3 106 -28 157 -32 65 -89 121
-156 152 -43 20 -65 21 -318 24 l-273 3 0 -85z m452 -107 c36 -14 53 -61 52
-140 0 -98 -25 -129 -111 -144 l-43 -7 0 157 0 157 38 -6 c20 -4 49 -12 64
-17z"/>
<path d="M9350 3215 l0 -85 55 0 55 0 0 -410 0 -410 -55 0 -55 0 0 -85 0 -85
255 0 255 0 0 85 0 85 -60 0 -60 0 0 410 0 410 60 0 60 0 0 85 0 85 -255 0
-255 0 0 -85z"/>
<path d="M10040 3215 l0 -85 35 0 c27 0 35 -4 35 -18 0 -10 -27 -190 -60 -400
-33 -211 -60 -387 -60 -393 0 -5 -18 -9 -40 -9 l-40 0 0 -85 0 -85 200 0 200
0 0 85 0 85 -35 0 c-41 0 -41 3 -22 135 l12 80 97 3 97 3 6 -48 c4 -26 10 -73
15 -103 4 -30 6 -58 3 -62 -2 -5 -20 -8 -39 -8 l-34 0 0 -85 0 -85 200 0 200
0 0 85 0 85 -35 0 c-28 0 -36 4 -40 23 -10 45 -125 760 -125 778 0 15 7 19 35
19 l35 0 0 85 0 85 -320 0 -320 0 0 -85z m340 -72 c1 -10 14 -117 29 -238 16
-121 26 -223 24 -227 -5 -9 -137 -11 -145 -3 -4 5 49 450 57 473 7 18 35 14
35 -5z"/>
<path d="M11410 3216 l0 -85 53 -3 52 -3 0 -405 0 -405 -52 -3 -53 -3 0 -85 0
-84 395 0 395 0 0 185 0 185 -100 0 -99 0 -3 -97 -3 -98 -100 0 -100 0 0 165
0 165 78 3 77 3 0 84 0 84 -77 3 -78 3 0 150 0 150 100 0 100 0 3 -92 3 -93
99 0 100 0 0 180 0 180 -395 0 -395 0 0 -84z"/>
<path d="M12310 3215 l0 -85 40 0 40 0 0 -410 0 -410 -40 0 -40 0 0 -85 0 -85
160 0 160 0 0 85 0 85 -35 0 -35 0 0 208 c0 115 -3 257 -7 315 -4 78 -3 107 5
107 7 0 12 -7 12 -15 0 -26 124 -388 203 -590 l73 -190 107 -3 107 -3 2 493 3
493 33 3 32 3 0 85 0 84 -155 0 -155 0 0 -85 0 -85 35 0 35 0 0 -132 c0 -73 3
-190 7 -260 4 -83 3 -128 -4 -128 -5 0 -20 39 -33 88 -31 119 -121 386 -168
502 l-38 95 -172 3 -172 2 0 -85z"/>
<path d="M14510 3215 l0 -85 55 0 55 0 0 -410 0 -410 -55 0 -55 0 0 -85 0 -85
255 0 255 0 0 85 0 85 -60 0 -60 0 0 410 0 410 60 0 60 0 0 85 0 85 -255 0
-255 0 0 -85z"/>
<path d="M15820 3090 l0 -210 85 0 85 0 0 125 0 125 50 0 50 0 0 -410 0 -410
-50 0 -50 0 0 -85 0 -85 235 0 235 0 0 85 0 85 -45 0 -45 0 0 410 0 410 50 0
50 0 0 -125 0 -125 85 0 85 0 0 210 0 210 -410 0 -410 0 0 -210z"/>
<path d="M16710 3215 l0 -85 50 0 50 0 0 -410 0 -410 -50 0 -50 0 0 -85 0 -85
395 0 395 0 0 185 0 185 -105 0 -105 0 0 -100 0 -100 -100 0 -100 0 0 170 0
170 75 0 75 0 0 85 0 85 -75 0 -75 0 0 155 0 155 100 0 100 0 0 -95 0 -95 105
0 105 0 0 180 0 180 -395 0 -395 0 0 -85z"/>
<path d="M17610 3215 l0 -85 40 0 40 0 0 -410 0 -410 -40 0 -40 0 0 -85 0 -85
150 0 150 0 0 85 0 85 -30 0 -30 0 0 415 c0 336 2 415 13 415 10 0 40 -141
107 -500 l94 -500 48 0 c26 0 48 4 48 10 0 9 162 896 176 963 3 15 10 27 15
27 5 0 9 -169 9 -415 l0 -415 -30 0 -30 0 0 -85 0 -85 210 0 210 0 0 85 0 85
-40 0 -40 0 0 410 0 410 40 0 40 0 0 85 0 85 -244 0 -244 0 -6 -27 c-8 -39
-66 -412 -66 -423 0 -6 -6 -10 -13 -10 -10 0 -23 63 -48 228 l-35 227 -227 3
-227 2 0 -85z"/>
<path d="M18910 3215 l0 -85 35 0 c27 0 35 -4 35 -18 0 -10 -27 -190 -60 -400
-33 -211 -60 -387 -60 -393 0 -5 -18 -9 -40 -9 l-40 0 0 -85 0 -85 200 0 200
0 0 85 0 85 -35 0 c-41 0 -41 3 -22 135 l12 80 97 3 97 3 6 -48 c4 -26 10 -73
15 -103 4 -30 6 -58 3 -62 -2 -5 -20 -8 -39 -8 l-34 0 0 -85 0 -85 200 0 200
0 0 85 0 85 -35 0 c-28 0 -36 4 -40 23 -10 45 -125 760 -125 778 0 15 7 19 35
19 l35 0 0 85 0 85 -320 0 -320 0 0 -85z m340 -72 c1 -10 14 -117 29 -238 16
-121 26 -223 24 -227 -5 -9 -137 -11 -145 -3 -4 5 49 450 57 473 7 18 35 14
35 -5z"/>
<path d="M5325 1191 c-84 -39 -157 -143 -196 -279 -42 -145 -43 -411 -3 -566
53 -208 184 -336 344 -336 36 0 89 8 116 17 61 21 140 98 173 168 21 45 52
165 45 173 -1 2 -46 17 -100 32 -65 19 -101 26 -105 19 -3 -6 -9 -37 -12 -69
-4 -32 -14 -74 -23 -94 -34 -70 -110 -69 -142 1 -15 33 -17 78 -17 363 0 292
2 328 18 357 21 40 58 51 92 29 34 -22 52 -61 65 -139 l12 -67 89 0 89 0 0
195 0 195 -90 0 -90 0 0 -42 -1 -43 -27 32 c-62 72 -153 93 -237 54z"/>
<path d="M6182 1188 c-151 -57 -254 -258 -268 -522 -17 -318 98 -575 287 -641
23 -8 72 -15 110 -15 181 0 307 121 371 355 18 67 21 107 21 245 0 138 -3 178
-21 245 -47 172 -136 292 -247 334 -74 28 -180 28 -253 -1z m171 -188 c42 -33
51 -103 51 -390 0 -287 -9 -357 -51 -390 -32 -25 -54 -25 -86 0 -40 31 -47 93
-47 390 0 297 7 359 47 390 32 25 54 25 86 0z"/>
<path d="M11762 1189 c-84 -42 -153 -148 -194 -297 -18 -66 -21 -104 -21 -267
0 -208 12 -281 69 -402 38 -79 133 -174 198 -196 137 -47 281 0 360 116 35 52
80 182 74 213 -2 11 -32 25 -98 45 -52 16 -98 29 -101 29 -4 0 -10 -28 -13
-62 -14 -121 -63 -186 -120 -160 -45 20 -56 52 -68 189 -14 169 -4 520 16 568
31 72 102 68 136 -8 11 -24 22 -69 26 -100 l7 -57 93 0 94 0 0 195 0 195 -95
0 -95 0 0 -40 0 -41 -30 35 c-60 68 -155 86 -238 45z"/>
<path d="M13226 1192 c-64 -21 -154 -104 -193 -179 -90 -169 -114 -445 -58
-658 38 -144 120 -262 220 -313 73 -37 188 -42 270 -11 112 42 198 155 247
326 20 68 23 101 23 253 0 152 -3 185 -23 253 -66 230 -192 348 -370 346 -37
0 -89 -8 -116 -17z m147 -183 c14 -6 30 -23 37 -37 40 -89 40 -636 0 -724 -17
-36 -62 -55 -96 -39 -54 24 -59 57 -59 396 0 330 5 370 48 400 26 18 38 19 70
4z"/>
<path d="M17565 1192 c-90 -43 -139 -133 -140 -257 0 -141 36 -207 216 -389
121 -121 147 -160 156 -226 16 -119 -95 -185 -161 -96 -15 20 -22 46 -24 102
l-4 74 -89 0 -89 0 0 -185 0 -185 90 0 c89 0 90 0 90 25 l0 24 51 -31 c103
-64 222 -48 303 43 99 111 111 280 30 441 -18 37 -68 94 -164 188 -76 74 -143
145 -149 157 -16 31 -14 105 4 130 31 45 113 36 139 -16 8 -14 17 -52 21 -84
l7 -57 84 0 84 0 0 170 0 170 -85 0 -85 0 0 -31 0 -31 -52 39 c-47 34 -59 38
-123 41 -53 2 -80 -2 -110 -16z"/>
<path d="M6820 1105 l0 -85 40 0 40 0 0 -410 0 -410 -40 0 -40 0 0 -85 0 -85
155 0 155 0 0 84 0 85 -32 3 -33 3 -3 413 c-2 356 0 412 12 412 9 0 18 -14 22
-37 4 -21 46 -245 93 -498 l87 -460 46 -3 c43 -3 47 -1 52 25 14 67 176 954
176 963 0 6 5 10 10 10 7 0 10 -145 10 -415 l0 -415 -30 0 -30 0 0 -85 0 -85
210 0 210 0 0 85 0 85 -40 0 -40 0 0 410 0 410 40 0 40 0 0 85 0 85 -245 0
c-135 0 -245 -3 -245 -7 0 -26 -70 -446 -75 -451 -14 -14 -24 29 -56 236 l-33
222 -228 0 -228 0 0 -85z"/>
<path d="M8020 1105 l0 -85 40 0 40 0 0 -410 0 -410 -40 0 -40 0 0 -85 0 -85
230 0 230 0 0 85 0 85 -50 0 -50 0 0 130 0 130 58 0 c123 0 252 49 316 121 19
20 44 63 56 95 18 50 21 74 18 159 -3 85 -8 109 -31 157 -30 62 -84 116 -146
148 -85 43 -142 50 -393 50 l-238 0 0 -85z m451 -111 c88 -45 93 -283 7 -337
-12 -8 -40 -18 -60 -21 l-38 -7 0 196 0 197 33 -7 c17 -4 44 -13 58 -21z"/>
<path d="M8920 1106 l0 -85 43 -3 42 -3 5 -400 5 -400 28 -57 c48 -99 142
-148 281 -148 140 0 221 45 276 154 l35 69 3 393 4 394 44 0 44 0 0 85 0 85
-160 0 -160 0 0 -85 c0 -84 0 -85 25 -85 l25 0 0 -380 c0 -417 -1 -426 -58
-449 -38 -16 -79 -5 -100 27 -15 23 -17 66 -17 412 l0 385 23 3 c21 3 22 8 22
88 l0 84 -205 0 -205 0 0 -84z"/>
<path d="M9790 980 l0 -210 85 0 85 0 0 125 0 125 50 0 50 0 0 -410 0 -410
-50 0 -50 0 0 -85 0 -85 235 0 235 0 0 85 0 85 -45 0 -45 0 0 410 0 410 50 0
50 0 0 -125 0 -125 85 0 85 0 0 210 0 210 -410 0 -410 0 0 -210z"/>
<path d="M10730 1105 l0 -85 35 0 c27 0 35 -4 35 -18 0 -10 -27 -190 -60 -400
-33 -211 -60 -387 -60 -393 0 -5 -18 -9 -40 -9 l-40 0 0 -85 0 -85 200 0 200
0 0 85 0 85 -35 0 c-41 0 -41 3 -22 135 l12 80 97 3 97 3 6 -48 c4 -26 10 -73
15 -103 4 -30 6 -58 3 -62 -2 -5 -20 -8 -39 -8 l-34 0 0 -85 0 -85 200 0 200
0 0 85 0 85 -35 0 c-28 0 -36 4 -40 22 -10 46 -125 761 -125 779 0 15 7 19 35
19 l35 0 0 85 0 85 -320 0 -320 0 0 -85z m340 -72 c1 -10 14 -117 29 -238 16
-121 26 -223 24 -227 -5 -9 -137 -11 -145 -3 -4 5 49 450 57 473 7 18 35 14
35 -5z"/>
<path d="M12330 1105 l0 -84 58 -3 57 -3 0 -405 0 -405 -57 -3 -58 -3 0 -84 0
-85 255 0 255 0 0 85 0 84 -57 3 -58 3 0 405 0 405 58 3 57 3 0 84 0 85 -255
0 -255 0 0 -85z"/>
<path d="M13860 1105 l0 -85 35 0 35 0 0 -410 0 -410 -35 0 -35 0 0 -85 0 -85
155 0 155 0 0 85 0 85 -30 0 c-17 0 -32 6 -35 13 -6 20 -11 617 -5 617 3 0 28
-69 54 -154 27 -85 90 -264 141 -398 l93 -243 111 -3 111 -3 0 496 0 495 30 0
30 0 0 85 0 85 -155 0 -155 0 0 -85 0 -85 35 0 35 0 0 -87 c0 -49 3 -167 6
-263 5 -117 3 -172 -4 -165 -5 6 -24 60 -41 120 -39 139 -107 341 -157 468
l-38 97 -168 0 -168 0 0 -85z"/>
<path d="M14840 1105 l0 -85 35 0 c19 0 35 -4 35 -9 0 -16 -120 -786 -125
-799 -2 -6 -20 -12 -40 -12 l-35 0 0 -85 0 -85 200 0 200 0 0 85 0 85 -36 0
-37 0 7 73 c4 39 9 89 13 110 l6 37 97 0 97 0 12 -88 c17 -133 17 -132 -24
-132 l-35 0 0 -85 0 -85 200 0 200 0 0 84 0 85 -37 3 -38 3 -66 400 c-36 220
-64 403 -62 408 2 4 20 7 39 7 l34 0 0 85 0 85 -320 0 -320 0 0 -85z m362
-265 c14 -113 27 -222 27 -242 l1 -38 -75 0 c-41 0 -75 1 -75 3 0 1 14 108 30
237 16 129 30 239 30 243 0 5 8 7 18 5 14 -3 21 -34 44 -208z"/>
<path d="M15660 1105 l0 -85 50 0 50 0 0 -410 0 -410 -50 0 -50 0 0 -85 0 -85
395 0 395 0 0 255 0 255 -105 0 -105 0 0 -170 0 -170 -100 0 -100 0 0 410 0
410 65 0 65 0 0 85 0 85 -255 0 -255 0 0 -85z"/>
<path d="M16520 1106 l0 -85 53 -3 52 -3 0 -405 0 -405 -52 -3 -53 -3 0 -85 0
-84 395 0 395 0 0 185 0 185 -100 0 -99 0 -3 -97 -3 -98 -100 0 -100 0 0 165
0 165 78 3 77 3 0 84 0 84 -77 3 -78 3 0 150 0 150 100 0 100 0 3 -92 3 -93
99 0 100 0 0 180 0 180 -395 0 -395 0 0 -84z"/>
</g>
</svg>
